<ttFont>
    <TTGlyph name=".notdef" xMin="63" yMin="0" xMax="438" yMax="750">
      <contour>
        <pt x="63" y="0" on="1"/>
        <pt x="63" y="750" on="1"/>
        <pt x="438" y="750" on="1"/>
        <pt x="438" y="0" on="1"/>
      </contour>
      <contour>
        <pt x="125" y="63" on="1"/>
        <pt x="375" y="63" on="1"/>
        <pt x="375" y="688" on="1"/>
        <pt x="125" y="688" on="1"/>
      </contour>
    </TTGlyph>
    <TTGlyph name="A" xMin="90" yMin="0" xMax="510" yMax="490">
      <contour>
        <pt x="510" y="0" on="1"/>
        <pt x="430" y="0" on="1"/>
        <pt x="430" y="140" on="1"/>
        <pt x="170" y="140" on="1"/>
        <pt x="170" y="0" on="1"/>
        <pt x="90" y="0" on="1"/>
        <pt x="90" y="420" on="1"/>
        <pt x="90" y="449" on="0"/>
        <pt x="131" y="490" on="0"/>
        <pt x="160" y="490" on="1"/>
        <pt x="510" y="490" on="1"/>
      </contour>
      <contour>
        <pt x="430" y="210" on="1"/>
        <pt x="430" y="420" on="1"/>
        <pt x="170" y="420" on="1"/>
        <pt x="170" y="150" on="1"/>
        <pt x="230" y="210" on="1"/>
      </contour>
    </TTGlyph>
    <TTGlyph name="AE" xMin="90" yMin="0" xMax="650" yMax="490">
      <contour>
        <pt x="650" y="0" on="1"/>
        <pt x="360" y="0" on="1"/>
        <pt x="360" y="140" on="1"/>
        <pt x="170" y="140" on="1"/>
        <pt x="170" y="0" on="1"/>
        <pt x="90" y="0" on="1"/>
        <pt x="90" y="420" on="1"/>
        <pt x="90" y="449" on="0"/>
        <pt x="131" y="490" on="0"/>
        <pt x="160" y="490" on="1"/>
        <pt x="650" y="490" on="1"/>
        <pt x="650" y="420" on="1"/>
        <pt x="440" y="420" on="1"/>
        <pt x="440" y="220" on="1"/>
        <pt x="500" y="280" on="1"/>
        <pt x="650" y="280" on="1"/>
        <pt x="650" y="210" on="1"/>
        <pt x="440" y="210" on="1"/>
        <pt x="440" y="70" on="1"/>
        <pt x="650" y="70" on="1"/>
      </contour>
      <contour>
        <pt x="360" y="210" on="1"/>
        <pt x="360" y="420" on="1"/>
        <pt x="170" y="420" on="1"/>
        <pt x="170" y="150" on="1"/>
        <pt x="230" y="210" on="1"/>
      </contour>
    </TTGlyph>
    <TTGlyph name="Aacute" xMin="90" yMin="0" xMax="510" yMax="700">
      <component glyphName="A" x="0" y="0" flags="0x204"/>
      <component glyphName="acute" x="270" y="140" flags="0x4"/>
    </TTGlyph>
    <TTGlyph name="Acircumflex" xMin="90" yMin="0" xMax="510" yMax="690">
      <component glyphName="A" x="0" y="0" flags="0x204"/>
      <component glyphName="circumflex" x="205" y="140" flags="0x4"/>
    </TTGlyph>
    <TTGlyph name="Adieresis" xMin="90" yMin="0" xMax="510" yMax="640">
      <component glyphName="A" x="0" y="0" flags="0x204"/>
      <component glyphName="dieresis" x="188" y="140" flags="0x4"/>
    </TTGlyph>
    <TTGlyph name="Agrave" xMin="90" yMin="0" xMax="510" yMax="700">
      <component glyphName="A" x="0" y="0" flags="0x204"/>
      <component glyphName="grave" x="205" y="140" flags="0x4"/>
    </TTGlyph>
    <TTGlyph name="Aring" xMin="90" yMin="0" xMax="510" yMax="710">
      <component glyphName="A" x="0" y="0" flags="0x204"/>
      <component glyphName="ring" x="181" y="108" flags="0x4"/>
    </TTGlyph>
    <TTGlyph name="Atilde" xMin="90" yMin="0" xMax="510" yMax="690">
      <component glyphName="A" x="0" y="0" flags="0x204"/>
      <component glyphName="tilde" x="162" y="140" flags="0x4"/>
    </TTGlyph>
    <TTGlyph name="B" xMin="90" yMin="0" xMax="510" yMax="490">
      <contour>
        <pt x="510" y="70" on="1"/>
        <pt x="510" y="41" on="0"/>
        <pt x="469" y="0" on="0"/>
        <pt x="440" y="0" on="1"/>
        <pt x="90" y="0" on="1"/>
        <pt x="90" y="350" on="1"/>
        <pt x="160" y="420" on="1"/>
        <pt x="90" y="420" on="1"/>
        <pt x="90" y="490" on="1"/>
        <pt x="370" y="490" on="1"/>
        <pt x="399" y="490" on="0"/>
        <pt x="440" y="449" on="0"/>
        <pt x="440" y="420" on="1"/>
        <pt x="440" y="280" on="1"/>
        <pt x="442" y="280" on="1"/>
        <pt x="471" y="280" on="0"/>
        <pt x="510" y="239" on="0"/>
        <pt x="510" y="210" on="1"/>
      </contour>
      <contour>
        <pt x="360" y="280" on="1"/>
        <pt x="360" y="420" on="1"/>
        <pt x="170" y="420" on="1"/>
        <pt x="170" y="220" on="1"/>
        <pt x="230" y="280" on="1"/>
      </contour>
      <contour>
        <pt x="430" y="70" on="1"/>
        <pt x="430" y="210" on="1"/>
        <pt x="170" y="210" on="1"/>
        <pt x="170" y="70" on="1"/>
      </contour>
    </TTGlyph>
    <TTGlyph name="C" xMin="85" yMin="0" xMax="505" yMax="490">
      <contour>
        <pt x="505" y="70" on="1"/>
        <pt x="505" y="41" on="0"/>
        <pt x="464" y="0" on="0"/>
        <pt x="435" y="0" on="1"/>
        <pt x="155" y="0" on="1"/>
        <pt x="126" y="0" on="0"/>
        <pt x="85" y="41" on="0"/>
        <pt x="85" y="70" on="1"/>
        <pt x="85" y="420" on="1"/>
        <pt x="85" y="449" on="0"/>
        <pt x="126" y="490" on="0"/>
        <pt x="155" y="490" on="1"/>
        <pt x="435" y="490" on="1"/>
        <pt x="464" y="490" on="0"/>
        <pt x="505" y="449" on="0"/>
        <pt x="505" y="420" on="1"/>
        <pt x="505" y="350" on="1"/>
        <pt x="425" y="350" on="1"/>
        <pt x="425" y="420" on="1"/>
        <pt x="165" y="420" on="1"/>
        <pt x="165" y="70" on="1"/>
        <pt x="425" y="70" on="1"/>
        <pt x="425" y="140" on="1"/>
        <pt x="505" y="140" on="1"/>
      </contour>
    </TTGlyph>
    <TTGlyph name="Ccedilla" xMin="85" yMin="-210" xMax="505" yMax="490">
      <contour>
        <pt x="505" y="70" on="1"/>
        <pt x="505" y="41" on="0"/>
        <pt x="464" y="0" on="0"/>
        <pt x="435" y="0" on="1"/>
        <pt x="300" y="0" on="1"/>
        <pt x="300" y="-51" on="1"/>
        <pt x="340" y="-51" on="1"/>
        <pt x="369" y="-51" on="0"/>
        <pt x="410" y="-91" on="0"/>
        <pt x="410" y="-120" on="1"/>
        <pt x="410" y="-140" on="1"/>
        <pt x="410" y="-169" on="0"/>
        <pt x="369" y="-210" on="0"/>
        <pt x="340" y="-210" on="1"/>
        <pt x="180" y="-210" on="1"/>
        <pt x="240" y="-150" on="1"/>
        <pt x="340" y="-150" on="1"/>
        <pt x="340" y="-100" on="1"/>
        <pt x="240" y="-100" on="1"/>
        <pt x="240" y="-48" on="1"/>
        <pt x="290" y="0" on="1"/>
        <pt x="155" y="0" on="1"/>
        <pt x="126" y="0" on="0"/>
        <pt x="85" y="41" on="0"/>
        <pt x="85" y="70" on="1"/>
        <pt x="85" y="420" on="1"/>
        <pt x="85" y="449" on="0"/>
        <pt x="126" y="490" on="0"/>
        <pt x="155" y="490" on="1"/>
        <pt x="435" y="490" on="1"/>
        <pt x="464" y="490" on="0"/>
        <pt x="505" y="449" on="0"/>
        <pt x="505" y="420" on="1"/>
        <pt x="505" y="350" on="1"/>
        <pt x="425" y="350" on="1"/>
        <pt x="425" y="420" on="1"/>
        <pt x="165" y="420" on="1"/>
        <pt x="165" y="70" on="1"/>
        <pt x="425" y="70" on="1"/>
        <pt x="425" y="140" on="1"/>
        <pt x="505" y="140" on="1"/>
      </contour>
    </TTGlyph>
    <TTGlyph name="D" xMin="90" yMin="0" xMax="510" yMax="490">
      <contour>
        <pt x="510" y="70" on="1"/>
        <pt x="510" y="42" on="0"/>
        <pt x="468" y="0" on="0"/>
        <pt x="440" y="0" on="1"/>
        <pt x="90" y="0" on="1"/>
        <pt x="90" y="350" on="1"/>
        <pt x="160" y="420" on="1"/>
        <pt x="90" y="420" on="1"/>
        <pt x="90" y="490" on="1"/>
        <pt x="440" y="490" on="1"/>
        <pt x="468" y="490" on="0"/>
        <pt x="510" y="448" on="0"/>
        <pt x="510" y="420" on="1"/>
      </contour>
      <contour>
        <pt x="430" y="70" on="1"/>
        <pt x="430" y="420" on="1"/>
        <pt x="170" y="420" on="1"/>
        <pt x="170" y="10" on="1"/>
        <pt x="230" y="70" on="1"/>
      </contour>
    </TTGlyph>
    <TTGlyph name="E" xMin="90" yMin="0" xMax="440" yMax="490">
      <contour>
        <pt x="440" y="0" on="1"/>
        <pt x="90" y="0" on="1"/>
        <pt x="90" y="350" on="1"/>
        <pt x="160" y="420" on="1"/>
        <pt x="90" y="420" on="1"/>
        <pt x="90" y="490" on="1"/>
        <pt x="440" y="490" on="1"/>
        <pt x="440" y="420" on="1"/>
        <pt x="170" y="420" on="1"/>
        <pt x="170" y="220" on="1"/>
        <pt x="230" y="280" on="1"/>
        <pt x="440" y="280" on="1"/>
        <pt x="440" y="210" on="1"/>
        <pt x="170" y="210" on="1"/>
        <pt x="170" y="70" on="1"/>
        <pt x="440" y="70" on="1"/>
      </contour>
    </TTGlyph>
    <TTGlyph name="Eacute" xMin="90" yMin="0" xMax="440" yMax="700">
      <component glyphName="E" x="0" y="0" flags="0x204"/>
      <component glyphName="acute" x="230" y="140" flags="0x4"/>
    </TTGlyph>
    <TTGlyph name="Ecircumflex" xMin="90" yMin="0" xMax="440" yMax="690">
      <component glyphName="E" x="0" y="0" flags="0x204"/>
      <component glyphName="circumflex" x="160" y="140" flags="0x4"/>
    </TTGlyph>
    <TTGlyph name="Edieresis" xMin="90" yMin="0" xMax="440" yMax="640">
      <component glyphName="E" x="0" y="0" flags="0x204"/>
      <component glyphName="dieresis" x="158" y="140" flags="0x4"/>
    </TTGlyph>
    <TTGlyph name="Egrave" xMin="90" yMin="0" xMax="440" yMax="700">
      <component glyphName="E" x="0" y="0" flags="0x204"/>
      <component glyphName="grave" x="175" y="140" flags="0x4"/>
    </TTGlyph>
    <TTGlyph name="Eth" xMin="35" yMin="0" xMax="525" yMax="490">
      <contour>
        <pt x="525" y="70" on="1"/>
        <pt x="525" y="42" on="0"/>
        <pt x="483" y="0" on="0"/>
        <pt x="455" y="0" on="1"/>
        <pt x="105" y="0" on="1"/>
        <pt x="105" y="210" on="1"/>
        <pt x="35" y="210" on="1"/>
        <pt x="35" y="280" on="1"/>
        <pt x="105" y="280" on="1"/>
        <pt x="105" y="350" on="1"/>
        <pt x="175" y="420" on="1"/>
        <pt x="105" y="420" on="1"/>
        <pt x="105" y="490" on="1"/>
        <pt x="455" y="490" on="1"/>
        <pt x="483" y="490" on="0"/>
        <pt x="525" y="448" on="0"/>
        <pt x="525" y="420" on="1"/>
      </contour>
      <contour>
        <pt x="445" y="70" on="1"/>
        <pt x="445" y="420" on="1"/>
        <pt x="185" y="420" on="1"/>
        <pt x="185" y="280" on="1"/>
        <pt x="315" y="280" on="1"/>
        <pt x="245" y="210" on="1"/>
        <pt x="185" y="210" on="1"/>
        <pt x="185" y="10" on="1"/>
        <pt x="245" y="70" on="1"/>
      </contour>
    </TTGlyph>
    <TTGlyph name="Euro" xMin="70" yMin="0" xMax="490" yMax="490">
      <contour>
        <pt x="490" y="490" on="1"/>
        <pt x="447" y="420" on="1"/>
        <pt x="215" y="420" on="1"/>
        <pt x="215" y="350" on="1"/>
        <pt x="405" y="350" on="1"/>
        <pt x="362" y="280" on="1"/>
        <pt x="215" y="280" on="1"/>
        <pt x="215" y="210" on="1"/>
        <pt x="319" y="210" on="1"/>
        <pt x="286" y="140" on="1"/>
        <pt x="215" y="140" on="1"/>
        <pt x="215" y="70" on="1"/>
        <pt x="465" y="70" on="1"/>
        <pt x="465" y="0" on="1"/>
        <pt x="205" y="0" on="1"/>
        <pt x="176" y="0" on="0"/>
        <pt x="135" y="41" on="0"/>
        <pt x="135" y="70" on="1"/>
        <pt x="135" y="140" on="1"/>
        <pt x="70" y="140" on="1"/>
        <pt x="70" y="210" on="1"/>
        <pt x="135" y="210" on="1"/>
        <pt x="135" y="280" on="1"/>
        <pt x="70" y="280" on="1"/>
        <pt x="70" y="350" on="1"/>
        <pt x="135" y="350" on="1"/>
        <pt x="135" y="420" on="1"/>
        <pt x="135" y="449" on="0"/>
        <pt x="176" y="490" on="0"/>
        <pt x="205" y="490" on="1"/>
      </contour>
    </TTGlyph>
    <TTGlyph name="F" xMin="90" yMin="0" xMax="440" yMax="490">
      <contour>
        <pt x="440" y="140" on="1"/>
        <pt x="170" y="140" on="1"/>
        <pt x="170" y="0" on="1"/>
        <pt x="90" y="0" on="1"/>
        <pt x="90" y="350" on="1"/>
        <pt x="160" y="420" on="1"/>
        <pt x="90" y="420" on="1"/>
        <pt x="90" y="490" on="1"/>
        <pt x="440" y="490" on="1"/>
        <pt x="440" y="420" on="1"/>
        <pt x="170" y="420" on="1"/>
        <pt x="170" y="150" on="1"/>
        <pt x="230" y="210" on="1"/>
        <pt x="440" y="210" on="1"/>
      </contour>
    </TTGlyph>
    <TTGlyph name="G" xMin="85" yMin="0" xMax="505" yMax="490">
      <contour>
        <pt x="505" y="0" on="1"/>
        <pt x="425" y="0" on="1"/>
        <pt x="425" y="60" on="1"/>
        <pt x="365" y="0" on="1"/>
        <pt x="155" y="0" on="1"/>
        <pt x="127" y="0" on="0"/>
        <pt x="85" y="42" on="0"/>
        <pt x="85" y="70" on="1"/>
        <pt x="85" y="420" on="1"/>
        <pt x="85" y="448" on="0"/>
        <pt x="127" y="490" on="0"/>
        <pt x="155" y="490" on="1"/>
        <pt x="505" y="490" on="1"/>
        <pt x="505" y="420" on="1"/>
        <pt x="165" y="420" on="1"/>
        <pt x="165" y="70" on="1"/>
        <pt x="425" y="70" on="1"/>
        <pt x="425" y="210" on="1"/>
        <pt x="295" y="210" on="1"/>
        <pt x="365" y="280" on="1"/>
        <pt x="505" y="280" on="1"/>
      </contour>
    </TTGlyph>
    <TTGlyph name="H" xMin="90" yMin="0" xMax="510" yMax="490">
      <contour>
        <pt x="510" y="0" on="1"/>
        <pt x="430" y="0" on="1"/>
        <pt x="430" y="210" on="1"/>
        <pt x="170" y="210" on="1"/>
        <pt x="170" y="0" on="1"/>
        <pt x="90" y="0" on="1"/>
        <pt x="90" y="490" on="1"/>
        <pt x="170" y="490" on="1"/>
        <pt x="170" y="220" on="1"/>
        <pt x="230" y="280" on="1"/>
        <pt x="430" y="280" on="1"/>
        <pt x="430" y="490" on="1"/>
        <pt x="510" y="490" on="1"/>
      </contour>
    </TTGlyph>
    <TTGlyph name="I" xMin="90" yMin="0" xMax="170" yMax="490">
      <contour>
        <pt x="170" y="0" on="1"/>
        <pt x="90" y="0" on="1"/>
        <pt x="90" y="490" on="1"/>
        <pt x="170" y="490" on="1"/>
      </contour>
    </TTGlyph>
    <TTGlyph name="Iacute" xMin="80" yMin="0" xMax="250" yMax="700">
      <component glyphName="I" x="0" y="0" flags="0x204"/>
      <component glyphName="acute" x="90" y="140" flags="0x4"/>
    </TTGlyph>
    <TTGlyph name="Icircumflex" xMin="15" yMin="0" xMax="245" yMax="690">
      <component glyphName="I" x="0" y="0" flags="0x204"/>
      <component glyphName="circumflex" x="25" y="140" flags="0x4"/>
    </TTGlyph>
    <TTGlyph name="Idieresis" xMin="35" yMin="0" xMax="235" yMax="640">
      <component glyphName="I" x="0" y="0" flags="0x204"/>
      <component glyphName="dieresis" x="15" y="140" flags="0x4"/>
    </TTGlyph>
    <TTGlyph name="Igrave" xMin="15" yMin="0" xMax="185" yMax="700">
      <component glyphName="I" x="0" y="0" flags="0x204"/>
      <component glyphName="grave" x="35" y="140" flags="0x4"/>
    </TTGlyph>
    <TTGlyph name="J" xMin="60" yMin="0" xMax="410" yMax="490">
      <contour>
        <pt x="410" y="70" on="1"/>
        <pt x="410" y="48" on="0"/>
        <pt x="390" y="25" on="1"/>
        <pt x="368" y="0" on="0"/>
        <pt x="340" y="0" on="1"/>
        <pt x="130" y="0" on="1"/>
        <pt x="102" y="0" on="0"/>
        <pt x="60" y="42" on="0"/>
        <pt x="60" y="70" on="1"/>
        <pt x="60" y="140" on="1"/>
        <pt x="140" y="140" on="1"/>
        <pt x="140" y="70" on="1"/>
        <pt x="330" y="70" on="1"/>
        <pt x="330" y="420" on="1"/>
        <pt x="60" y="420" on="1"/>
        <pt x="60" y="490" on="1"/>
        <pt x="410" y="490" on="1"/>
      </contour>
    </TTGlyph>
    <TTGlyph name="K" xMin="90" yMin="0" xMax="535" yMax="490">
      <contour>
        <pt x="535" y="490" on="1"/>
        <pt x="313" y="283" on="1"/>
        <pt x="313" y="273" on="1"/>
        <pt x="440" y="273" on="1"/>
        <pt x="469" y="273" on="0"/>
        <pt x="510" y="232" on="0"/>
        <pt x="510" y="203" on="1"/>
        <pt x="510" y="0" on="1"/>
        <pt x="430" y="0" on="1"/>
        <pt x="430" y="210" on="1"/>
        <pt x="170" y="210" on="1"/>
        <pt x="170" y="0" on="1"/>
        <pt x="90" y="0" on="1"/>
        <pt x="90" y="490" on="1"/>
        <pt x="170" y="490" on="1"/>
        <pt x="170" y="223" on="1"/>
        <pt x="436" y="490" on="1"/>
      </contour>
    </TTGlyph>
    <TTGlyph name="L" xMin="90" yMin="0" xMax="440" yMax="490">
      <contour>
        <pt x="440" y="0" on="1"/>
        <pt x="90" y="0" on="1"/>
        <pt x="90" y="490" on="1"/>
        <pt x="170" y="490" on="1"/>
        <pt x="170" y="70" on="1"/>
        <pt x="360" y="70" on="1"/>
        <pt x="360" y="140" on="1"/>
        <pt x="440" y="140" on="1"/>
      </contour>
    </TTGlyph>
    <TTGlyph name="M" xMin="90" yMin="1" xMax="580" yMax="490">
      <contour>
        <pt x="580" y="1" on="1"/>
        <pt x="500" y="1" on="1"/>
        <pt x="500" y="369" on="1"/>
        <pt x="530" y="419" on="1"/>
        <pt x="485" y="419" on="1"/>
        <pt x="362" y="140" on="1"/>
        <pt x="304" y="140" on="1"/>
        <pt x="185" y="419" on="1"/>
        <pt x="140" y="419" on="1"/>
        <pt x="170" y="369" on="1"/>
        <pt x="170" y="1" on="1"/>
        <pt x="90" y="1" on="1"/>
        <pt x="90" y="490" on="1"/>
        <pt x="233" y="490" on="1"/>
        <pt x="332" y="256" on="1"/>
        <pt x="342" y="256" on="1"/>
        <pt x="441" y="490" on="1"/>
        <pt x="580" y="490" on="1"/>
      </contour>
    </TTGlyph>
    <TTGlyph name="N" xMin="90" yMin="1" xMax="510" yMax="491">
      <contour>
        <pt x="510" y="1" on="1"/>
        <pt x="370" y="1" on="1"/>
        <pt x="180" y="416" on="1"/>
        <pt x="140" y="416" on="1"/>
        <pt x="170" y="366" on="1"/>
        <pt x="170" y="1" on="1"/>
        <pt x="90" y="1" on="1"/>
        <pt x="90" y="491" on="1"/>
        <pt x="231" y="491" on="1"/>
        <pt x="420" y="76" on="1"/>
        <pt x="460" y="76" on="1"/>
        <pt x="430" y="126" on="1"/>
        <pt x="430" y="491" on="1"/>
        <pt x="510" y="491" on="1"/>
      </contour>
    </TTGlyph>
    <TTGlyph name="Ntilde" xMin="90" yMin="1" xMax="510" yMax="690">
      <component glyphName="N" x="0" y="0" flags="0x204"/>
      <component glyphName="tilde" x="175" y="140" flags="0x4"/>
    </TTGlyph>
    <TTGlyph name="O" xMin="85" yMin="0" xMax="505" yMax="490">
      <contour>
        <pt x="505" y="70" on="1"/>
        <pt x="505" y="41" on="0"/>
        <pt x="464" y="0" on="0"/>
        <pt x="435" y="0" on="1"/>
        <pt x="155" y="0" on="1"/>
        <pt x="126" y="0" on="0"/>
        <pt x="85" y="41" on="0"/>
        <pt x="85" y="70" on="1"/>
        <pt x="85" y="420" on="1"/>
        <pt x="85" y="449" on="0"/>
        <pt x="126" y="490" on="0"/>
        <pt x="155" y="490" on="1"/>
        <pt x="435" y="490" on="1"/>
        <pt x="464" y="490" on="0"/>
        <pt x="505" y="449" on="0"/>
        <pt x="505" y="420" on="1"/>
      </contour>
      <contour>
        <pt x="425" y="70" on="1"/>
        <pt x="425" y="420" on="1"/>
        <pt x="165" y="420" on="1"/>
        <pt x="165" y="70" on="1"/>
      </contour>
    </TTGlyph>
    <TTGlyph name="OE" xMin="85" yMin="0" xMax="645" yMax="490">
      <contour>
        <pt x="645" y="0" on="1"/>
        <pt x="155" y="0" on="1"/>
        <pt x="126" y="0" on="0"/>
        <pt x="85" y="41" on="0"/>
        <pt x="85" y="70" on="1"/>
        <pt x="85" y="420" on="1"/>
        <pt x="85" y="449" on="0"/>
        <pt x="126" y="490" on="0"/>
        <pt x="155" y="490" on="1"/>
        <pt x="645" y="490" on="1"/>
        <pt x="645" y="420" on="1"/>
        <pt x="435" y="420" on="1"/>
        <pt x="435" y="220" on="1"/>
        <pt x="495" y="280" on="1"/>
        <pt x="645" y="280" on="1"/>
        <pt x="645" y="210" on="1"/>
        <pt x="435" y="210" on="1"/>
        <pt x="435" y="70" on="1"/>
        <pt x="645" y="70" on="1"/>
      </contour>
      <contour>
        <pt x="355" y="70" on="1"/>
        <pt x="355" y="420" on="1"/>
        <pt x="165" y="420" on="1"/>
        <pt x="165" y="70" on="1"/>
      </contour>
    </TTGlyph>
    <TTGlyph name="Oacute" xMin="85" yMin="0" xMax="505" yMax="700">
      <component glyphName="O" x="0" y="0" flags="0x204"/>
      <component glyphName="acute" x="250" y="140" flags="0x4"/>
    </TTGlyph>
    <TTGlyph name="Ocircumflex" xMin="85" yMin="0" xMax="505" yMax="690">
      <component glyphName="O" x="0" y="0" flags="0x204"/>
      <component glyphName="circumflex" x="195" y="140" flags="0x4"/>
    </TTGlyph>
    <TTGlyph name="Odieresis" xMin="85" yMin="0" xMax="505" yMax="640">
      <component glyphName="O" x="0" y="0" flags="0x204"/>
      <component glyphName="dieresis" x="180" y="140" flags="0x4"/>
    </TTGlyph>
    <TTGlyph name="Ograve" xMin="85" yMin="0" xMax="505" yMax="700">
      <component glyphName="O" x="0" y="0" flags="0x204"/>
      <component glyphName="grave" x="195" y="140" flags="0x4"/>
    </TTGlyph>
    <TTGlyph name="Oslash" xMin="60" yMin="-42" xMax="540" yMax="527">
      <contour>
        <pt x="540" y="480" on="1"/>
        <pt x="498" y="432" on="1"/>
        <pt x="510" y="420" on="1"/>
        <pt x="510" y="70" on="1"/>
        <pt x="510" y="41" on="0"/>
        <pt x="468" y="0" on="0"/>
        <pt x="440" y="0" on="1"/>
        <pt x="160" y="0" on="1"/>
        <pt x="147" y="13" on="1"/>
        <pt x="105" y="-42" on="1"/>
        <pt x="60" y="6" on="1"/>
        <pt x="101" y="59" on="1"/>
        <pt x="90" y="70" on="1"/>
        <pt x="90" y="420" on="1"/>
        <pt x="90" y="449" on="0"/>
        <pt x="131" y="490" on="0"/>
        <pt x="160" y="490" on="1"/>
        <pt x="440" y="490" on="1"/>
        <pt x="451" y="479" on="1"/>
        <pt x="493" y="527" on="1"/>
      </contour>
      <contour>
        <pt x="392" y="410" on="1"/>
        <pt x="392" y="420" on="1"/>
        <pt x="170" y="420" on="1"/>
        <pt x="170" y="142" on="1"/>
        <pt x="180" y="142" on="1"/>
      </contour>
      <contour>
        <pt x="430" y="70" on="1"/>
        <pt x="430" y="351" on="1"/>
        <pt x="420" y="351" on="1"/>
        <pt x="204" y="80" on="1"/>
        <pt x="204" y="70" on="1"/>
      </contour>
    </TTGlyph>
    <TTGlyph name="Otilde" xMin="85" yMin="0" xMax="505" yMax="690">
      <component glyphName="O" x="0" y="0" flags="0x204"/>
      <component glyphName="tilde" x="150" y="140" flags="0x4"/>
    </TTGlyph>
    <TTGlyph name="P" xMin="90" yMin="0" xMax="510" yMax="490">
      <contour>
        <pt x="510" y="210" on="1"/>
        <pt x="510" y="182" on="0"/>
        <pt x="468" y="140" on="0"/>
        <pt x="440" y="140" on="1"/>
        <pt x="170" y="140" on="1"/>
        <pt x="170" y="0" on="1"/>
        <pt x="90" y="0" on="1"/>
        <pt x="90" y="350" on="1"/>
        <pt x="160" y="420" on="1"/>
        <pt x="90" y="420" on="1"/>
        <pt x="90" y="490" on="1"/>
        <pt x="440" y="490" on="1"/>
        <pt x="468" y="490" on="0"/>
        <pt x="510" y="448" on="0"/>
        <pt x="510" y="420" on="1"/>
      </contour>
      <contour>
        <pt x="430" y="210" on="1"/>
        <pt x="430" y="420" on="1"/>
        <pt x="170" y="420" on="1"/>
        <pt x="170" y="150" on="1"/>
        <pt x="230" y="210" on="1"/>
      </contour>
    </TTGlyph>
    <TTGlyph name="Q" xMin="85" yMin="-70" xMax="505" yMax="490">
      <contour>
        <pt x="505" y="70" on="1"/>
        <pt x="505" y="41" on="0"/>
        <pt x="464" y="0" on="0"/>
        <pt x="435" y="0" on="1"/>
        <pt x="355" y="0" on="1"/>
        <pt x="355" y="-70" on="1"/>
        <pt x="285" y="-70" on="1"/>
        <pt x="285" y="0" on="1"/>
        <pt x="155" y="0" on="1"/>
        <pt x="126" y="0" on="0"/>
        <pt x="85" y="41" on="0"/>
        <pt x="85" y="70" on="1"/>
        <pt x="85" y="420" on="1"/>
        <pt x="85" y="449" on="0"/>
        <pt x="126" y="490" on="0"/>
        <pt x="155" y="490" on="1"/>
        <pt x="435" y="490" on="1"/>
        <pt x="464" y="490" on="0"/>
        <pt x="505" y="449" on="0"/>
        <pt x="505" y="420" on="1"/>
      </contour>
      <contour>
        <pt x="425" y="70" on="1"/>
        <pt x="425" y="420" on="1"/>
        <pt x="165" y="420" on="1"/>
        <pt x="165" y="70" on="1"/>
        <pt x="285" y="70" on="1"/>
        <pt x="355" y="141" on="1"/>
        <pt x="355" y="70" on="1"/>
      </contour>
    </TTGlyph>
    <TTGlyph name="R" xMin="90" yMin="0" xMax="520" yMax="490">
      <contour>
        <pt x="520" y="0" on="1"/>
        <pt x="418" y="0" on="1"/>
        <pt x="210" y="210" on="1"/>
        <pt x="430" y="210" on="1"/>
        <pt x="430" y="420" on="1"/>
        <pt x="170" y="420" on="1"/>
        <pt x="170" y="0" on="1"/>
        <pt x="90" y="0" on="1"/>
        <pt x="90" y="351" on="1"/>
        <pt x="160" y="420" on="1"/>
        <pt x="90" y="420" on="1"/>
        <pt x="90" y="490" on="1"/>
        <pt x="440" y="490" on="1"/>
        <pt x="468" y="490" on="0"/>
        <pt x="510" y="448" on="0"/>
        <pt x="510" y="420" on="1"/>
        <pt x="510" y="230" on="1"/>
        <pt x="510" y="150" on="0"/>
        <pt x="440" y="150" on="1"/>
        <pt x="380" y="150" on="1"/>
        <pt x="380" y="139" on="1"/>
      </contour>
    </TTGlyph>
    <TTGlyph name="S" xMin="70" yMin="0" xMax="420" yMax="490">
      <contour>
        <pt x="420" y="70" on="1"/>
        <pt x="420" y="41" on="0"/>
        <pt x="379" y="0" on="0"/>
        <pt x="350" y="0" on="1"/>
        <pt x="70" y="0" on="1"/>
        <pt x="70" y="70" on="1"/>
        <pt x="340" y="70" on="1"/>
        <pt x="340" y="210" on="1"/>
        <pt x="140" y="210" on="1"/>
        <pt x="111" y="210" on="0"/>
        <pt x="70" y="251" on="0"/>
        <pt x="70" y="280" on="1"/>
        <pt x="70" y="420" on="1"/>
        <pt x="70" y="449" on="0"/>
        <pt x="111" y="490" on="0"/>
        <pt x="140" y="490" on="1"/>
        <pt x="420" y="490" on="1"/>
        <pt x="420" y="420" on="1"/>
        <pt x="150" y="420" on="1"/>
        <pt x="150" y="280" on="1"/>
        <pt x="350" y="280" on="1"/>
        <pt x="379" y="280" on="0"/>
        <pt x="420" y="239" on="0"/>
        <pt x="420" y="210" on="1"/>
      </contour>
    </TTGlyph>
    <TTGlyph name="T" xMin="5" yMin="0" xMax="375" yMax="490">
      <contour>
        <pt x="375" y="420" on="1"/>
        <pt x="230" y="420" on="1"/>
        <pt x="230" y="0" on="1"/>
        <pt x="150" y="0" on="1"/>
        <pt x="150" y="420" on="1"/>
        <pt x="5" y="420" on="1"/>
        <pt x="5" y="490" on="1"/>
        <pt x="375" y="490" on="1"/>
      </contour>
    </TTGlyph>
    <TTGlyph name="Thorn" xMin="90" yMin="0" xMax="510" yMax="490">
      <contour>
        <pt x="510" y="140" on="1"/>
        <pt x="510" y="112" on="0"/>
        <pt x="468" y="70" on="0"/>
        <pt x="440" y="70" on="1"/>
        <pt x="170" y="70" on="1"/>
        <pt x="170" y="0" on="1"/>
        <pt x="90" y="0" on="1"/>
        <pt x="90" y="490" on="1"/>
        <pt x="170" y="490" on="1"/>
        <pt x="170" y="420" on="1"/>
        <pt x="440" y="420" on="1"/>
        <pt x="468" y="420" on="0"/>
        <pt x="510" y="378" on="0"/>
        <pt x="510" y="350" on="1"/>
      </contour>
      <contour>
        <pt x="430" y="140" on="1"/>
        <pt x="430" y="350" on="1"/>
        <pt x="170" y="350" on="1"/>
        <pt x="170" y="80" on="1"/>
        <pt x="230" y="140" on="1"/>
      </contour>
    </TTGlyph>
    <TTGlyph name="U" xMin="90" yMin="0" xMax="510" yMax="490">
      <contour>
        <pt x="510" y="0" on="1"/>
        <pt x="430" y="0" on="1"/>
        <pt x="430" y="60" on="1"/>
        <pt x="370" y="0" on="1"/>
        <pt x="160" y="0" on="1"/>
        <pt x="131" y="0" on="0"/>
        <pt x="90" y="41" on="0"/>
        <pt x="90" y="70" on="1"/>
        <pt x="90" y="490" on="1"/>
        <pt x="170" y="490" on="1"/>
        <pt x="170" y="70" on="1"/>
        <pt x="430" y="70" on="1"/>
        <pt x="430" y="490" on="1"/>
        <pt x="510" y="490" on="1"/>
      </contour>
    </TTGlyph>
    <TTGlyph name="Uacute" xMin="90" yMin="0" xMax="510" yMax="700">
      <component glyphName="U" x="0" y="0" flags="0x4"/>
      <component glyphName="acute" x="260" y="140" flags="0x4"/>
    </TTGlyph>
    <TTGlyph name="Ucircumflex" xMin="90" yMin="0" xMax="510" yMax="690">
      <component glyphName="U" x="0" y="0" flags="0x4"/>
      <component glyphName="circumflex" x="195" y="140" flags="0x4"/>
    </TTGlyph>
    <TTGlyph name="Udieresis" xMin="90" yMin="0" xMax="510" yMax="640">
      <component glyphName="U" x="0" y="0" flags="0x4"/>
      <component glyphName="dieresis" x="180" y="140" flags="0x4"/>
    </TTGlyph>
    <TTGlyph name="Ugrave" xMin="90" yMin="0" xMax="510" yMax="700">
      <component glyphName="U" x="0" y="0" flags="0x4"/>
      <component glyphName="grave" x="195" y="140" flags="0x4"/>
    </TTGlyph>
    <TTGlyph name="V" xMin="30" yMin="0" xMax="530" yMax="490">
      <contour>
        <pt x="530" y="490" on="1"/>
        <pt x="343" y="0" on="1"/>
        <pt x="213" y="0" on="1"/>
        <pt x="30" y="490" on="1"/>
        <pt x="120" y="490" on="1"/>
        <pt x="270" y="68" on="1"/>
        <pt x="290" y="68" on="1"/>
        <pt x="440" y="490" on="1"/>
      </contour>
    </TTGlyph>
    <TTGlyph name="W" xMin="35" yMin="0" xMax="725" yMax="490">
      <contour>
        <pt x="725" y="490" on="1"/>
        <pt x="615" y="0" on="1"/>
        <pt x="480" y="0" on="1"/>
        <pt x="385" y="359" on="1"/>
        <pt x="375" y="359" on="1"/>
        <pt x="280" y="0" on="1"/>
        <pt x="145" y="0" on="1"/>
        <pt x="35" y="490" on="1"/>
        <pt x="125" y="490" on="1"/>
        <pt x="205" y="68" on="1"/>
        <pt x="225" y="68" on="1"/>
        <pt x="340" y="490" on="1"/>
        <pt x="420" y="490" on="1"/>
        <pt x="535" y="68" on="1"/>
        <pt x="555" y="68" on="1"/>
        <pt x="635" y="490" on="1"/>
      </contour>
    </TTGlyph>
    <TTGlyph name="X" xMin="10" yMin="0" xMax="480" yMax="490">
      <contour>
        <pt x="480" y="0" on="1"/>
        <pt x="386" y="0" on="1"/>
        <pt x="247" y="200" on="1"/>
        <pt x="237" y="200" on="1"/>
        <pt x="106" y="0" on="1"/>
        <pt x="10" y="0" on="1"/>
        <pt x="191" y="255" on="1"/>
        <pt x="20" y="490" on="1"/>
        <pt x="116" y="490" on="1"/>
        <pt x="244" y="301" on="1"/>
        <pt x="254" y="301" on="1"/>
        <pt x="376" y="490" on="1"/>
        <pt x="470" y="490" on="1"/>
        <pt x="301" y="255" on="1"/>
      </contour>
    </TTGlyph>
    <TTGlyph name="Y" xMin="70" yMin="0" xMax="490" yMax="490">
      <contour>
        <pt x="490" y="210" on="1"/>
        <pt x="490" y="181" on="0"/>
        <pt x="449" y="140" on="0"/>
        <pt x="420" y="140" on="1"/>
        <pt x="320" y="140" on="1"/>
        <pt x="320" y="0" on="1"/>
        <pt x="240" y="0" on="1"/>
        <pt x="240" y="140" on="1"/>
        <pt x="140" y="140" on="1"/>
        <pt x="111" y="140" on="0"/>
        <pt x="70" y="181" on="0"/>
        <pt x="70" y="210" on="1"/>
        <pt x="70" y="490" on="1"/>
        <pt x="150" y="490" on="1"/>
        <pt x="150" y="210" on="1"/>
        <pt x="410" y="210" on="1"/>
        <pt x="410" y="490" on="1"/>
        <pt x="490" y="490" on="1"/>
      </contour>
    </TTGlyph>
    <TTGlyph name="Yacute" xMin="70" yMin="0" xMax="490" yMax="700">
      <component glyphName="Y" x="0" y="0" flags="0x4"/>
      <component glyphName="acute" x="240" y="140" flags="0x4"/>
    </TTGlyph>
    <TTGlyph name="Z" xMin="55" yMin="0" xMax="475" yMax="490">
      <contour>
        <pt x="475" y="0" on="1"/>
        <pt x="55" y="0" on="1"/>
        <pt x="55" y="85" on="1"/>
        <pt x="390" y="420" on="1"/>
        <pt x="55" y="420" on="1"/>
        <pt x="55" y="490" on="1"/>
        <pt x="475" y="490" on="1"/>
        <pt x="475" y="404" on="1"/>
        <pt x="140" y="70" on="1"/>
        <pt x="475" y="70" on="1"/>
      </contour>
    </TTGlyph>
    <TTGlyph name="a" xMin="55" yMin="0" xMax="405" yMax="350">
      <contour>
        <pt x="405" y="0" on="1"/>
        <pt x="335" y="0" on="1"/>
        <pt x="335" y="51" on="1"/>
        <pt x="275" y="0" on="1"/>
        <pt x="125" y="0" on="1"/>
        <pt x="96" y="0" on="0"/>
        <pt x="55" y="41" on="0"/>
        <pt x="55" y="70" on="1"/>
        <pt x="55" y="140" on="1"/>
        <pt x="55" y="169" on="0"/>
        <pt x="96" y="210" on="0"/>
        <pt x="125" y="210" on="1"/>
        <pt x="325" y="210" on="1"/>
        <pt x="265" y="151" on="1"/>
        <pt x="125" y="151" on="1"/>
        <pt x="125" y="60" on="1"/>
        <pt x="335" y="60" on="1"/>
        <pt x="335" y="290" on="1"/>
        <pt x="55" y="290" on="1"/>
        <pt x="115" y="350" on="1"/>
        <pt x="335" y="350" on="1"/>
        <pt x="364" y="350" on="0"/>
        <pt x="405" y="309" on="0"/>
        <pt x="405" y="280" on="1"/>
      </contour>
    </TTGlyph>
    <TTGlyph name="aacute" xMin="55" yMin="0" xMax="405" yMax="560">
      <component glyphName="a" x="0" y="0" flags="0x204"/>
      <component glyphName="acute" x="200" y="0" flags="0x4"/>
    </TTGlyph>
    <TTGlyph name="acircumflex" xMin="55" yMin="0" xMax="405" yMax="550">
      <component glyphName="a" x="0" y="0" flags="0x204"/>
      <component glyphName="circumflex" x="140" y="0" flags="0x4"/>
    </TTGlyph>
    <TTGlyph name="acute" xMin="-10" yMin="420" xMax="160" yMax="560">
      <contour>
        <pt x="160" y="560" on="1"/>
        <pt x="60" y="420" on="1"/>
        <pt x="-10" y="420" on="1"/>
        <pt x="90" y="560" on="1"/>
      </contour>
    </TTGlyph>
    <TTGlyph name="adieresis" xMin="55" yMin="0" xMax="405" yMax="500">
      <component glyphName="a" x="0" y="0" flags="0x204"/>
      <component glyphName="dieresis" x="125" y="0" flags="0x4"/>
    </TTGlyph>
    <TTGlyph name="ae" xMin="55" yMin="0" xMax="635" yMax="350">
      <contour>
        <pt x="635" y="210" on="1"/>
        <pt x="565" y="140" on="1"/>
        <pt x="390" y="140" on="1"/>
        <pt x="450" y="199" on="1"/>
        <pt x="565" y="199" on="1"/>
        <pt x="565" y="290" on="1"/>
        <pt x="380" y="290" on="1"/>
        <pt x="380" y="60" on="1"/>
        <pt x="625" y="60" on="1"/>
        <pt x="625" y="0" on="1"/>
        <pt x="380" y="0" on="1"/>
        <pt x="356" y="0" on="0"/>
        <pt x="318" y="30" on="0"/>
        <pt x="312" y="53" on="1"/>
        <pt x="250" y="0" on="1"/>
        <pt x="125" y="0" on="1"/>
        <pt x="96" y="0" on="0"/>
        <pt x="55" y="41" on="0"/>
        <pt x="55" y="70" on="1"/>
        <pt x="55" y="140" on="1"/>
        <pt x="55" y="169" on="0"/>
        <pt x="96" y="210" on="0"/>
        <pt x="125" y="210" on="1"/>
        <pt x="300" y="210" on="1"/>
        <pt x="240" y="151" on="1"/>
        <pt x="125" y="151" on="1"/>
        <pt x="125" y="60" on="1"/>
        <pt x="311" y="60" on="1"/>
        <pt x="310" y="63" on="0"/>
        <pt x="310" y="70" on="1"/>
        <pt x="310" y="290" on="1"/>
        <pt x="55" y="290" on="1"/>
        <pt x="115" y="350" on="1"/>
        <pt x="310" y="350" on="1"/>
        <pt x="345" y="315" on="1"/>
        <pt x="380" y="350" on="1"/>
        <pt x="565" y="350" on="1"/>
        <pt x="594" y="350" on="0"/>
        <pt x="635" y="309" on="0"/>
        <pt x="635" y="280" on="1"/>
      </contour>
    </TTGlyph>
    <TTGlyph name="agrave" xMin="55" yMin="0" xMax="405" yMax="560">
      <component glyphName="a" x="0" y="0" flags="0x204"/>
      <component glyphName="grave" x="150" y="0" flags="0x4"/>
    </TTGlyph>
    <TTGlyph name="ampersand" xMin="100" yMin="0" xMax="580" yMax="490">
      <contour>
        <pt x="580" y="0" on="1"/>
        <pt x="490" y="0" on="1"/>
        <pt x="439" y="49" on="1"/>
        <pt x="390" y="0" on="1"/>
        <pt x="170" y="0" on="1"/>
        <pt x="141" y="0" on="0"/>
        <pt x="100" y="41" on="0"/>
        <pt x="100" y="70" on="1"/>
        <pt x="100" y="190" on="1"/>
        <pt x="100" y="205" on="0"/>
        <pt x="111" y="232" on="0"/>
        <pt x="131" y="253" on="0"/>
        <pt x="156" y="265" on="0"/>
        <pt x="170" y="265" on="1"/>
        <pt x="220" y="265" on="1"/>
        <pt x="185" y="298" on="1"/>
        <pt x="160" y="323" on="0"/>
        <pt x="160" y="350" on="1"/>
        <pt x="160" y="420" on="1"/>
        <pt x="160" y="449" on="0"/>
        <pt x="201" y="490" on="0"/>
        <pt x="230" y="490" on="1"/>
        <pt x="370" y="490" on="1"/>
        <pt x="399" y="490" on="0"/>
        <pt x="440" y="449" on="0"/>
        <pt x="440" y="420" on="1"/>
        <pt x="440" y="350" on="1"/>
        <pt x="370" y="350" on="1"/>
        <pt x="370" y="430" on="1"/>
        <pt x="230" y="430" on="1"/>
        <pt x="230" y="350" on="1"/>
        <pt x="345" y="235" on="1"/>
        <pt x="381" y="270" on="1"/>
        <pt x="530" y="270" on="1"/>
        <pt x="469" y="210" on="1"/>
        <pt x="370" y="210" on="1"/>
      </contour>
      <contour>
        <pt x="429" y="60" on="1"/>
        <pt x="276" y="210" on="1"/>
        <pt x="170" y="210" on="1"/>
        <pt x="170" y="60" on="1"/>
      </contour>
    </TTGlyph>
    <TTGlyph name="aring" xMin="55" yMin="0" xMax="405" yMax="599">
      <component glyphName="a" x="0" y="0" flags="0x204"/>
      <component glyphName="ring" x="116" y="-3" flags="0x4"/>
    </TTGlyph>
    <TTGlyph name="asciicircum" xMin="54" yMin="342" xMax="466" yMax="642">
      <contour>
        <pt x="466" y="392" on="1"/>
        <pt x="416" y="342" on="1"/>
        <pt x="256" y="543" on="1"/>
        <pt x="104" y="342" on="1"/>
        <pt x="54" y="392" on="1"/>
        <pt x="255" y="642" on="1"/>
      </contour>
    </TTGlyph>
    <TTGlyph name="asciitilde" xMin="100" yMin="140" xMax="420" yMax="280">
      <contour>
        <pt x="420" y="210" on="1"/>
        <pt x="420" y="181" on="0"/>
        <pt x="379" y="140" on="0"/>
        <pt x="350" y="140" on="1"/>
        <pt x="318" y="140" on="1"/>
        <pt x="289" y="140" on="0"/>
        <pt x="268" y="161" on="1"/>
        <pt x="209" y="220" on="1"/>
        <pt x="160" y="220" on="1"/>
        <pt x="160" y="140" on="1"/>
        <pt x="100" y="140" on="1"/>
        <pt x="100" y="210" on="1"/>
        <pt x="100" y="240" on="0"/>
        <pt x="141" y="280" on="0"/>
        <pt x="170" y="280" on="1"/>
        <pt x="203" y="280" on="1"/>
        <pt x="232" y="280" on="0"/>
        <pt x="253" y="259" on="1"/>
        <pt x="312" y="200" on="1"/>
        <pt x="360" y="200" on="1"/>
        <pt x="360" y="280" on="1"/>
        <pt x="420" y="280" on="1"/>
      </contour>
    </TTGlyph>
    <TTGlyph name="asterisk" xMin="70" yMin="225" xMax="464" yMax="619">
      <contour>
        <pt x="406" y="477" on="1"/>
        <pt x="342" y="413" on="1"/>
        <pt x="342" y="498" on="1"/>
        <pt x="406" y="562" on="1"/>
      </contour>
      <contour>
        <pt x="327" y="469" on="1"/>
        <pt x="267" y="529" on="1"/>
        <pt x="267" y="619" on="1"/>
        <pt x="327" y="559" on="1"/>
      </contour>
      <contour>
        <pt x="464" y="421" on="1"/>
        <pt x="404" y="361" on="1"/>
        <pt x="314" y="361" on="1"/>
        <pt x="374" y="421" on="1"/>
      </contour>
      <contour>
        <pt x="276" y="497" on="1"/>
        <pt x="191" y="497" on="1"/>
        <pt x="127" y="561" on="1"/>
        <pt x="212" y="561" on="1"/>
      </contour>
      <contour>
        <pt x="417" y="279" on="1"/>
        <pt x="332" y="279" on="1"/>
        <pt x="268" y="343" on="1"/>
        <pt x="353" y="343" on="1"/>
      </contour>
      <contour>
        <pt x="220" y="481" on="1"/>
        <pt x="160" y="421" on="1"/>
        <pt x="70" y="421" on="1"/>
        <pt x="130" y="481" on="1"/>
      </contour>
      <contour>
        <pt x="267" y="225" on="1"/>
        <pt x="207" y="285" on="1"/>
        <pt x="207" y="375" on="1"/>
        <pt x="267" y="315" on="1"/>
      </contour>
      <contour>
        <pt x="192" y="430" on="1"/>
        <pt x="192" y="346" on="1"/>
        <pt x="128" y="282" on="1"/>
        <pt x="128" y="367" on="1"/>
      </contour>
    </TTGlyph>
    <TTGlyph name="at" xMin="50" yMin="-200" xMax="700" yMax="550">
      <contour>
        <pt x="700" y="70" on="1"/>
        <pt x="700" y="41" on="0"/>
        <pt x="659" y="0" on="0"/>
        <pt x="630" y="0" on="1"/>
        <pt x="491" y="0" on="1"/>
        <pt x="466" y="0" on="0"/>
        <pt x="434" y="30" on="0"/>
        <pt x="433" y="54" on="1"/>
        <pt x="360" y="0" on="1"/>
        <pt x="250" y="0" on="1"/>
        <pt x="224" y="0" on="0"/>
        <pt x="192" y="32" on="0"/>
        <pt x="192" y="57" on="1"/>
        <pt x="192" y="65" on="0"/>
        <pt x="193" y="70" on="1"/>
        <pt x="207" y="140" on="1"/>
        <pt x="213" y="169" on="0"/>
        <pt x="262" y="210" on="0"/>
        <pt x="291" y="210" on="1"/>
        <pt x="461" y="210" on="1"/>
        <pt x="389" y="150" on="1"/>
        <pt x="279" y="150" on="1"/>
        <pt x="261" y="60" on="1"/>
        <pt x="433" y="60" on="1"/>
        <pt x="433" y="67" on="0"/>
        <pt x="434" y="70" on="1"/>
        <pt x="437" y="85" on="1"/>
        <pt x="476" y="290" on="1"/>
        <pt x="226" y="290" on="1"/>
        <pt x="298" y="350" on="1"/>
        <pt x="488" y="350" on="1"/>
        <pt x="513" y="350" on="0"/>
        <pt x="545" y="318" on="0"/>
        <pt x="545" y="293" on="1"/>
        <pt x="545" y="285" on="0"/>
        <pt x="544" y="280" on="1"/>
        <pt x="502" y="60" on="1"/>
        <pt x="640" y="60" on="1"/>
        <pt x="640" y="490" on="1"/>
        <pt x="110" y="490" on="1"/>
        <pt x="110" y="-140" on="1"/>
        <pt x="689" y="-140" on="1"/>
        <pt x="608" y="-200" on="1"/>
        <pt x="130" y="-200" on="1"/>
        <pt x="115" y="-200" on="0"/>
        <pt x="86" y="-189" on="0"/>
        <pt x="64" y="-169" on="0"/>
        <pt x="50" y="-144" on="0"/>
        <pt x="50" y="-130" on="1"/>
        <pt x="50" y="480" on="1"/>
        <pt x="50" y="509" on="0"/>
        <pt x="91" y="550" on="0"/>
        <pt x="120" y="550" on="1"/>
        <pt x="630" y="550" on="1"/>
        <pt x="659" y="550" on="0"/>
        <pt x="700" y="509" on="0"/>
        <pt x="700" y="480" on="1"/>
      </contour>
    </TTGlyph>
    <TTGlyph name="atilde" xMin="55" yMin="0" xMax="405" yMax="550">
      <component glyphName="a" x="0" y="0" flags="0x204"/>
      <component glyphName="tilde" x="95" y="0" flags="0x4"/>
    </TTGlyph>
    <TTGlyph name="b" xMin="80" yMin="-10" xMax="430" yMax="580">
      <contour>
        <pt x="430" y="70" on="1"/>
        <pt x="430" y="41" on="0"/>
        <pt x="389" y="0" on="0"/>
        <pt x="360" y="0" on="1"/>
        <pt x="150" y="0" on="1"/>
        <pt x="150" y="59" on="1"/>
        <pt x="80" y="-10" on="1"/>
        <pt x="80" y="510" on="1"/>
        <pt x="150" y="580" on="1"/>
        <pt x="150" y="300" on="1"/>
        <pt x="200" y="350" on="1"/>
        <pt x="360" y="350" on="1"/>
        <pt x="389" y="350" on="0"/>
        <pt x="430" y="309" on="0"/>
        <pt x="430" y="280" on="1"/>
      </contour>
      <contour>
        <pt x="360" y="60" on="1"/>
        <pt x="360" y="290" on="1"/>
        <pt x="150" y="290" on="1"/>
        <pt x="150" y="60" on="1"/>
      </contour>
    </TTGlyph>
    <TTGlyph name="backslash" xMin="-40" yMin="-70" xMax="310" yMax="560">
      <contour>
        <pt x="31" y="560" on="1"/>
        <pt x="310" y="-70" on="1"/>
        <pt x="236" y="-70" on="1"/>
        <pt x="-40" y="560" on="1"/>
      </contour>
    </TTGlyph>
    <TTGlyph name="bar" xMin="100" yMin="-70" xMax="170" yMax="560">
      <contour>
        <pt x="170" y="-70" on="1"/>
        <pt x="100" y="-70" on="1"/>
        <pt x="100" y="560" on="1"/>
        <pt x="170" y="560" on="1"/>
      </contour>
    </TTGlyph>
    <TTGlyph name="braceleft" xMin="50" yMin="-70" xMax="250" yMax="560">
      <contour>
        <pt x="250" y="-70" on="1"/>
        <pt x="180" y="-70" on="1"/>
        <pt x="152" y="-70" on="0"/>
        <pt x="110" y="-28" on="0"/>
        <pt x="110" y="0" on="1"/>
        <pt x="110" y="210" on="1"/>
        <pt x="50" y="210" on="1"/>
        <pt x="50" y="280" on="1"/>
        <pt x="110" y="280" on="1"/>
        <pt x="110" y="490" on="1"/>
        <pt x="110" y="518" on="0"/>
        <pt x="152" y="560" on="0"/>
        <pt x="180" y="560" on="1"/>
        <pt x="250" y="560" on="1"/>
        <pt x="250" y="500" on="1"/>
        <pt x="180" y="500" on="1"/>
        <pt x="180" y="284" on="1"/>
        <pt x="140" y="244" on="1"/>
        <pt x="180" y="204" on="1"/>
        <pt x="180" y="-10" on="1"/>
        <pt x="250" y="-10" on="1"/>
      </contour>
    </TTGlyph>
    <TTGlyph name="braceright" xMin="70" yMin="-70" xMax="270" yMax="560">
      <contour>
        <pt x="70" y="-10" on="1"/>
        <pt x="140" y="-10" on="1"/>
        <pt x="140" y="204" on="1"/>
        <pt x="180" y="244" on="1"/>
        <pt x="140" y="284" on="1"/>
        <pt x="140" y="500" on="1"/>
        <pt x="70" y="500" on="1"/>
        <pt x="70" y="560" on="1"/>
        <pt x="140" y="560" on="1"/>
        <pt x="168" y="560" on="0"/>
        <pt x="210" y="518" on="0"/>
        <pt x="210" y="490" on="1"/>
        <pt x="210" y="280" on="1"/>
        <pt x="270" y="280" on="1"/>
        <pt x="270" y="210" on="1"/>
        <pt x="210" y="210" on="1"/>
        <pt x="210" y="0" on="1"/>
        <pt x="210" y="-28" on="0"/>
        <pt x="168" y="-70" on="0"/>
        <pt x="140" y="-70" on="1"/>
        <pt x="70" y="-70" on="1"/>
      </contour>
    </TTGlyph>
    <TTGlyph name="bracketleft" xMin="110" yMin="-70" xMax="250" yMax="560">
      <contour>
        <pt x="250" y="-70" on="1"/>
        <pt x="110" y="-70" on="1"/>
        <pt x="110" y="560" on="1"/>
        <pt x="250" y="560" on="1"/>
        <pt x="250" y="500" on="1"/>
        <pt x="180" y="500" on="1"/>
        <pt x="180" y="-10" on="1"/>
        <pt x="250" y="-10" on="1"/>
      </contour>
    </TTGlyph>
    <TTGlyph name="bracketright" xMin="70" yMin="-70" xMax="210" yMax="560">
      <contour>
        <pt x="70" y="-10" on="1"/>
        <pt x="140" y="-10" on="1"/>
        <pt x="140" y="500" on="1"/>
        <pt x="70" y="500" on="1"/>
        <pt x="70" y="560" on="1"/>
        <pt x="210" y="560" on="1"/>
        <pt x="210" y="-70" on="1"/>
        <pt x="70" y="-70" on="1"/>
      </contour>
    </TTGlyph>
    <TTGlyph name="brokenbar" xMin="100" yMin="-70" xMax="170" yMax="560">
      <contour>
        <pt x="170" y="350" on="1"/>
        <pt x="100" y="350" on="1"/>
        <pt x="100" y="560" on="1"/>
        <pt x="170" y="560" on="1"/>
      </contour>
      <contour>
        <pt x="170" y="-70" on="1"/>
        <pt x="100" y="-70" on="1"/>
        <pt x="100" y="140" on="1"/>
        <pt x="170" y="140" on="1"/>
      </contour>
    </TTGlyph>
    <TTGlyph name="bullet" xMin="90" yMin="130" xMax="250" yMax="290">
      <contour>
        <pt x="250" y="200" on="1"/>
        <pt x="250" y="171" on="0"/>
        <pt x="209" y="130" on="0"/>
        <pt x="180" y="130" on="1"/>
        <pt x="160" y="130" on="1"/>
        <pt x="131" y="130" on="0"/>
        <pt x="90" y="171" on="0"/>
        <pt x="90" y="200" on="1"/>
        <pt x="90" y="220" on="1"/>
        <pt x="90" y="249" on="0"/>
        <pt x="131" y="290" on="0"/>
        <pt x="160" y="290" on="1"/>
        <pt x="180" y="290" on="1"/>
        <pt x="209" y="290" on="0"/>
        <pt x="250" y="249" on="0"/>
        <pt x="250" y="220" on="1"/>
      </contour>
    </TTGlyph>
    <TTGlyph name="c" xMin="70" yMin="0" xMax="370" yMax="350">
      <contour>
        <pt x="370" y="350" on="1"/>
        <pt x="309" y="290" on="1"/>
        <pt x="140" y="290" on="1"/>
        <pt x="140" y="60" on="1"/>
        <pt x="350" y="60" on="1"/>
        <pt x="350" y="0" on="1"/>
        <pt x="140" y="0" on="1"/>
        <pt x="111" y="0" on="0"/>
        <pt x="70" y="41" on="0"/>
        <pt x="70" y="70" on="1"/>
        <pt x="70" y="280" on="1"/>
        <pt x="70" y="309" on="0"/>
        <pt x="111" y="350" on="0"/>
        <pt x="140" y="350" on="1"/>
      </contour>
    </TTGlyph>
    <TTGlyph name="caron" xMin="-10" yMin="420" xMax="220" yMax="550">
      <contour>
        <pt x="-10" y="550" on="1"/>
        <pt x="60" y="550" on="1"/>
        <pt x="100" y="460" on="1"/>
        <pt x="110" y="460" on="1"/>
        <pt x="150" y="550" on="1"/>
        <pt x="220" y="550" on="1"/>
        <pt x="140" y="420" on="1"/>
        <pt x="70" y="420" on="1"/>
      </contour>
    </TTGlyph>
    <TTGlyph name="ccedilla" xMin="70" yMin="-210" xMax="370" yMax="350">
      <contour>
        <pt x="370" y="350" on="1"/>
        <pt x="309" y="290" on="1"/>
        <pt x="140" y="290" on="1"/>
        <pt x="140" y="60" on="1"/>
        <pt x="350" y="60" on="1"/>
        <pt x="350" y="0" on="1"/>
        <pt x="225" y="0" on="1"/>
        <pt x="225" y="-51" on="1"/>
        <pt x="265" y="-51" on="1"/>
        <pt x="294" y="-51" on="0"/>
        <pt x="335" y="-91" on="0"/>
        <pt x="335" y="-120" on="1"/>
        <pt x="335" y="-140" on="1"/>
        <pt x="335" y="-169" on="0"/>
        <pt x="294" y="-210" on="0"/>
        <pt x="265" y="-210" on="1"/>
        <pt x="105" y="-210" on="1"/>
        <pt x="165" y="-150" on="1"/>
        <pt x="265" y="-150" on="1"/>
        <pt x="265" y="-100" on="1"/>
        <pt x="165" y="-100" on="1"/>
        <pt x="165" y="-48" on="1"/>
        <pt x="215" y="0" on="1"/>
        <pt x="140" y="0" on="1"/>
        <pt x="111" y="0" on="0"/>
        <pt x="70" y="41" on="0"/>
        <pt x="70" y="70" on="1"/>
        <pt x="70" y="280" on="1"/>
        <pt x="70" y="309" on="0"/>
        <pt x="111" y="350" on="0"/>
        <pt x="140" y="350" on="1"/>
      </contour>
    </TTGlyph>
    <TTGlyph name="cedilla" xMin="30" yMin="-210" xMax="260" yMax="10">
      <contour>
        <pt x="260" y="-140" on="1"/>
        <pt x="260" y="-169" on="0"/>
        <pt x="219" y="-210" on="0"/>
        <pt x="190" y="-210" on="1"/>
        <pt x="30" y="-210" on="1"/>
        <pt x="90" y="-150" on="1"/>
        <pt x="190" y="-150" on="1"/>
        <pt x="190" y="-100" on="1"/>
        <pt x="90" y="-100" on="1"/>
        <pt x="90" y="-48" on="1"/>
        <pt x="150" y="10" on="1"/>
        <pt x="150" y="-51" on="1"/>
        <pt x="190" y="-51" on="1"/>
        <pt x="219" y="-51" on="0"/>
        <pt x="260" y="-91" on="0"/>
        <pt x="260" y="-120" on="1"/>
      </contour>
    </TTGlyph>
    <TTGlyph name="cent" xMin="90" yMin="-60" xMax="420" yMax="410">
      <contour>
        <pt x="420" y="350" on="1"/>
        <pt x="359" y="290" on="1"/>
        <pt x="300" y="290" on="1"/>
        <pt x="300" y="60" on="1"/>
        <pt x="390" y="60" on="1"/>
        <pt x="390" y="0" on="1"/>
        <pt x="300" y="0" on="1"/>
        <pt x="240" y="-60" on="1"/>
        <pt x="240" y="0" on="1"/>
        <pt x="160" y="0" on="1"/>
        <pt x="131" y="0" on="0"/>
        <pt x="90" y="41" on="0"/>
        <pt x="90" y="70" on="1"/>
        <pt x="90" y="280" on="1"/>
        <pt x="90" y="309" on="0"/>
        <pt x="131" y="350" on="0"/>
        <pt x="160" y="350" on="1"/>
        <pt x="240" y="350" on="1"/>
        <pt x="300" y="410" on="1"/>
        <pt x="300" y="350" on="1"/>
      </contour>
      <contour>
        <pt x="240" y="60" on="1"/>
        <pt x="240" y="290" on="1"/>
        <pt x="160" y="290" on="1"/>
        <pt x="160" y="60" on="1"/>
      </contour>
    </TTGlyph>
    <TTGlyph name="circumflex" xMin="-10" yMin="420" xMax="220" yMax="550">
      <contour>
        <pt x="220" y="420" on="1"/>
        <pt x="150" y="420" on="1"/>
        <pt x="110" y="510" on="1"/>
        <pt x="100" y="510" on="1"/>
        <pt x="60" y="420" on="1"/>
        <pt x="-10" y="420" on="1"/>
        <pt x="70" y="550" on="1"/>
        <pt x="140" y="550" on="1"/>
      </contour>
    </TTGlyph>
    <TTGlyph name="colon" xMin="71" yMin="0" xMax="161" yMax="350">
      <component glyphName="period" x="-9" y="0" flags="0x4"/>
      <component glyphName="period" x="-9" y="270" flags="0x4"/>
    </TTGlyph>
    <TTGlyph name="comma" xMin="80" yMin="-150" xMax="180" yMax="80">
      <contour>
        <pt x="180" y="-80" on="1"/>
        <pt x="120" y="-150" on="1"/>
        <pt x="120" y="0" on="1"/>
        <pt x="80" y="0" on="1"/>
        <pt x="80" y="80" on="1"/>
        <pt x="110" y="80" on="1"/>
        <pt x="139" y="80" on="0"/>
        <pt x="180" y="39" on="0"/>
        <pt x="180" y="10" on="1"/>
      </contour>
    </TTGlyph>
    <TTGlyph name="copyright" xMin="100" yMin="-140" xMax="810" yMax="630">
      <contour>
        <pt x="810" y="-70" on="1"/>
        <pt x="810" y="-99" on="0"/>
        <pt x="769" y="-140" on="0"/>
        <pt x="740" y="-140" on="1"/>
        <pt x="180" y="-140" on="1"/>
        <pt x="165" y="-140" on="0"/>
        <pt x="136" y="-129" on="0"/>
        <pt x="114" y="-109" on="0"/>
        <pt x="100" y="-84" on="0"/>
        <pt x="100" y="-70" on="1"/>
        <pt x="100" y="560" on="1"/>
        <pt x="100" y="589" on="0"/>
        <pt x="141" y="630" on="0"/>
        <pt x="170" y="630" on="1"/>
        <pt x="740" y="630" on="1"/>
        <pt x="769" y="630" on="0"/>
        <pt x="810" y="589" on="0"/>
        <pt x="810" y="560" on="1"/>
      </contour>
      <contour>
        <pt x="750" y="-80" on="1"/>
        <pt x="750" y="570" on="1"/>
        <pt x="160" y="570" on="1"/>
        <pt x="160" y="-80" on="1"/>
      </contour>
      <contour>
        <pt x="660" y="70" on="1"/>
        <pt x="660" y="41" on="0"/>
        <pt x="619" y="0" on="0"/>
        <pt x="590" y="0" on="1"/>
        <pt x="330" y="0" on="1"/>
        <pt x="301" y="0" on="0"/>
        <pt x="260" y="41" on="0"/>
        <pt x="260" y="70" on="1"/>
        <pt x="260" y="420" on="1"/>
        <pt x="260" y="449" on="0"/>
        <pt x="301" y="490" on="0"/>
        <pt x="330" y="490" on="1"/>
        <pt x="590" y="490" on="1"/>
        <pt x="619" y="490" on="0"/>
        <pt x="660" y="449" on="0"/>
        <pt x="660" y="420" on="1"/>
        <pt x="660" y="350" on="1"/>
        <pt x="580" y="350" on="1"/>
        <pt x="580" y="420" on="1"/>
        <pt x="340" y="420" on="1"/>
        <pt x="340" y="70" on="1"/>
        <pt x="580" y="70" on="1"/>
        <pt x="580" y="140" on="1"/>
        <pt x="660" y="140" on="1"/>
      </contour>
    </TTGlyph>
    <TTGlyph name="currency" xMin="80" yMin="32" xMax="440" yMax="388">
      <contour>
        <pt x="440" y="81" on="1"/>
        <pt x="391" y="32" on="1"/>
        <pt x="334" y="87" on="1"/>
        <pt x="321" y="74" on="0"/>
        <pt x="305" y="58" on="0"/>
        <pt x="301" y="56" on="1"/>
        <pt x="282" y="42" on="0"/>
        <pt x="260" y="42" on="1"/>
        <pt x="238" y="42" on="0"/>
        <pt x="218" y="56" on="1"/>
        <pt x="214" y="58" on="0"/>
        <pt x="198" y="74" on="0"/>
        <pt x="185" y="87" on="1"/>
        <pt x="129" y="32" on="1"/>
        <pt x="80" y="81" on="1"/>
        <pt x="136" y="136" on="1"/>
        <pt x="107" y="165" on="0"/>
        <pt x="104" y="169" on="1"/>
        <pt x="90" y="188" on="0"/>
        <pt x="90" y="210" on="1"/>
        <pt x="90" y="232" on="0"/>
        <pt x="104" y="252" on="1"/>
        <pt x="106" y="255" on="0"/>
        <pt x="121" y="271" on="0"/>
        <pt x="135" y="284" on="1"/>
        <pt x="80" y="339" on="1"/>
        <pt x="129" y="388" on="1"/>
        <pt x="185" y="334" on="1"/>
        <pt x="198" y="347" on="0"/>
        <pt x="214" y="363" on="0"/>
        <pt x="218" y="365" on="1"/>
        <pt x="237" y="379" on="0"/>
        <pt x="259" y="379" on="1"/>
        <pt x="282" y="379" on="0"/>
        <pt x="302" y="365" on="1"/>
        <pt x="306" y="362" on="0"/>
        <pt x="322" y="346" on="0"/>
        <pt x="335" y="333" on="1"/>
        <pt x="391" y="388" on="1"/>
        <pt x="440" y="339" on="1"/>
        <pt x="384" y="284" on="1"/>
        <pt x="398" y="271" on="0"/>
        <pt x="413" y="255" on="0"/>
        <pt x="415" y="252" on="1"/>
        <pt x="429" y="232" on="0"/>
        <pt x="429" y="211" on="1"/>
        <pt x="429" y="189" on="0"/>
        <pt x="415" y="169" on="1"/>
        <pt x="413" y="166" on="0"/>
        <pt x="398" y="150" on="0"/>
        <pt x="384" y="137" on="1"/>
      </contour>
      <contour>
        <pt x="372" y="210" on="1"/>
        <pt x="259" y="323" on="1"/>
        <pt x="147" y="210" on="1"/>
        <pt x="259" y="98" on="1"/>
      </contour>
    </TTGlyph>
    <TTGlyph name="d" xMin="70" yMin="0" xMax="420" yMax="580">
      <contour>
        <pt x="420" y="0" on="1"/>
        <pt x="350" y="0" on="1"/>
        <pt x="350" y="50" on="1"/>
        <pt x="300" y="0" on="1"/>
        <pt x="140" y="0" on="1"/>
        <pt x="111" y="0" on="0"/>
        <pt x="70" y="41" on="0"/>
        <pt x="70" y="70" on="1"/>
        <pt x="70" y="280" on="1"/>
        <pt x="70" y="309" on="0"/>
        <pt x="111" y="350" on="0"/>
        <pt x="140" y="350" on="1"/>
        <pt x="350" y="350" on="1"/>
        <pt x="350" y="510" on="1"/>
        <pt x="420" y="580" on="1"/>
      </contour>
      <contour>
        <pt x="350" y="60" on="1"/>
        <pt x="350" y="340" on="1"/>
        <pt x="300" y="290" on="1"/>
        <pt x="140" y="290" on="1"/>
        <pt x="140" y="60" on="1"/>
      </contour>
    </TTGlyph>
    <TTGlyph name="degree" xMin="80" yMin="350" xMax="290" yMax="560">
      <contour>
        <pt x="290" y="420" on="1"/>
        <pt x="290" y="391" on="0"/>
        <pt x="249" y="350" on="0"/>
        <pt x="220" y="350" on="1"/>
        <pt x="150" y="350" on="1"/>
        <pt x="121" y="350" on="0"/>
        <pt x="80" y="391" on="0"/>
        <pt x="80" y="420" on="1"/>
        <pt x="80" y="490" on="1"/>
        <pt x="80" y="519" on="0"/>
        <pt x="121" y="560" on="0"/>
        <pt x="150" y="560" on="1"/>
        <pt x="220" y="560" on="1"/>
        <pt x="249" y="560" on="0"/>
        <pt x="290" y="519" on="0"/>
        <pt x="290" y="490" on="1"/>
      </contour>
      <contour>
        <pt x="230" y="410" on="1"/>
        <pt x="230" y="500" on="1"/>
        <pt x="140" y="500" on="1"/>
        <pt x="140" y="410" on="1"/>
      </contour>
    </TTGlyph>
    <TTGlyph name="designer" xMin="65" yMin="-70" xMax="993" yMax="317">
      <contour>
        <pt x="993" y="112" on="1"/>
        <pt x="942" y="68" on="1"/>
        <pt x="942" y="64" on="1"/>
        <pt x="954" y="64" on="1"/>
        <pt x="987" y="64" on="0"/>
        <pt x="987" y="42" on="1"/>
        <pt x="987" y="0" on="1"/>
        <pt x="964" y="0" on="1"/>
        <pt x="964" y="48" on="1"/>
        <pt x="897" y="48" on="1"/>
        <pt x="897" y="0" on="1"/>
        <pt x="875" y="0" on="1"/>
        <pt x="875" y="163" on="1"/>
        <pt x="897" y="186" on="1"/>
        <pt x="897" y="51" on="1"/>
        <pt x="966" y="112" on="1"/>
      </contour>
      <contour>
        <pt x="724" y="198" on="1"/>
        <pt x="702" y="198" on="1"/>
        <pt x="702" y="224" on="1"/>
        <pt x="657" y="224" on="1"/>
        <pt x="657" y="131" on="1"/>
        <pt x="635" y="131" on="1"/>
        <pt x="635" y="243" on="1"/>
        <pt x="657" y="243" on="1"/>
        <pt x="657" y="227" on="1"/>
        <pt x="673" y="243" on="1"/>
        <pt x="702" y="243" on="1"/>
        <pt x="724" y="243" on="0"/>
        <pt x="724" y="221" on="1"/>
      </contour>
      <contour>
        <pt x="849" y="-47" on="1"/>
        <pt x="849" y="-70" on="0"/>
        <pt x="827" y="-70" on="1"/>
        <pt x="734" y="-70" on="1"/>
        <pt x="753" y="-51" on="1"/>
        <pt x="827" y="-51" on="1"/>
        <pt x="827" y="16" on="1"/>
        <pt x="811" y="0" on="1"/>
        <pt x="760" y="0" on="1"/>
        <pt x="737" y="0" on="0"/>
        <pt x="737" y="22" on="1"/>
        <pt x="737" y="112" on="1"/>
        <pt x="760" y="112" on="1"/>
        <pt x="760" y="19" on="1"/>
        <pt x="827" y="19" on="1"/>
        <pt x="827" y="112" on="1"/>
        <pt x="849" y="112" on="1"/>
      </contour>
      <contour>
        <pt x="608" y="154" on="1"/>
        <pt x="608" y="131" on="0"/>
        <pt x="586" y="131" on="1"/>
        <pt x="519" y="131" on="1"/>
        <pt x="496" y="131" on="0"/>
        <pt x="496" y="154" on="1"/>
        <pt x="496" y="221" on="1"/>
        <pt x="496" y="243" on="0"/>
        <pt x="519" y="243" on="1"/>
        <pt x="586" y="243" on="1"/>
        <pt x="608" y="243" on="0"/>
        <pt x="608" y="221" on="1"/>
      </contour>
      <contour>
        <pt x="724" y="67" on="1"/>
        <pt x="702" y="67" on="1"/>
        <pt x="702" y="93" on="1"/>
        <pt x="657" y="93" on="1"/>
        <pt x="657" y="0" on="1"/>
        <pt x="635" y="0" on="1"/>
        <pt x="635" y="112" on="1"/>
        <pt x="657" y="112" on="1"/>
        <pt x="657" y="96" on="1"/>
        <pt x="673" y="112" on="1"/>
        <pt x="702" y="112" on="1"/>
        <pt x="724" y="112" on="0"/>
        <pt x="724" y="90" on="1"/>
      </contour>
      <contour>
        <pt x="488" y="131" on="1"/>
        <pt x="440" y="131" on="1"/>
        <pt x="417" y="131" on="0"/>
        <pt x="417" y="154" on="1"/>
        <pt x="417" y="224" on="1"/>
        <pt x="356" y="224" on="1"/>
        <pt x="381" y="243" on="1"/>
        <pt x="417" y="243" on="1"/>
        <pt x="417" y="266" on="1"/>
        <pt x="440" y="288" on="1"/>
        <pt x="440" y="243" on="1"/>
        <pt x="488" y="243" on="1"/>
        <pt x="488" y="224" on="1"/>
        <pt x="440" y="224" on="1"/>
        <pt x="440" y="150" on="1"/>
        <pt x="488" y="150" on="1"/>
      </contour>
      <contour>
        <pt x="608" y="0" on="1"/>
        <pt x="586" y="0" on="1"/>
        <pt x="586" y="16" on="1"/>
        <pt x="567" y="0" on="1"/>
        <pt x="524" y="0" on="1"/>
        <pt x="501" y="0" on="0"/>
        <pt x="501" y="22" on="1"/>
        <pt x="501" y="45" on="1"/>
        <pt x="501" y="67" on="0"/>
        <pt x="524" y="67" on="1"/>
        <pt x="586" y="67" on="1"/>
        <pt x="586" y="93" on="1"/>
        <pt x="498" y="93" on="1"/>
        <pt x="517" y="112" on="1"/>
        <pt x="586" y="112" on="1"/>
        <pt x="608" y="112" on="0"/>
        <pt x="608" y="90" on="1"/>
      </contour>
      <contour>
        <pt x="483" y="0" on="1"/>
        <pt x="461" y="0" on="1"/>
        <pt x="461" y="93" on="1"/>
        <pt x="400" y="93" on="1"/>
        <pt x="400" y="0" on="1"/>
        <pt x="377" y="0" on="1"/>
        <pt x="377" y="163" on="1"/>
        <pt x="400" y="186" on="1"/>
        <pt x="400" y="96" on="1"/>
        <pt x="416" y="112" on="1"/>
        <pt x="461" y="112" on="1"/>
        <pt x="483" y="112" on="0"/>
        <pt x="483" y="90" on="1"/>
      </contour>
      <contour>
        <pt x="221" y="262" on="1"/>
        <pt x="198" y="262" on="1"/>
        <pt x="198" y="288" on="1"/>
        <pt x="221" y="288" on="1"/>
      </contour>
      <contour>
        <pt x="364" y="112" on="1"/>
        <pt x="314" y="68" on="1"/>
        <pt x="314" y="64" on="1"/>
        <pt x="325" y="64" on="1"/>
        <pt x="358" y="64" on="0"/>
        <pt x="358" y="42" on="1"/>
        <pt x="358" y="0" on="1"/>
        <pt x="336" y="0" on="1"/>
        <pt x="336" y="48" on="1"/>
        <pt x="268" y="48" on="1"/>
        <pt x="268" y="0" on="1"/>
        <pt x="246" y="0" on="1"/>
        <pt x="246" y="294" on="1"/>
        <pt x="268" y="317" on="1"/>
        <pt x="268" y="182" on="1"/>
        <pt x="337" y="243" on="1"/>
        <pt x="364" y="243" on="1"/>
        <pt x="314" y="199" on="1"/>
        <pt x="314" y="196" on="1"/>
        <pt x="325" y="196" on="1"/>
        <pt x="358" y="196" on="0"/>
        <pt x="358" y="173" on="1"/>
        <pt x="358" y="131" on="1"/>
        <pt x="336" y="131" on="1"/>
        <pt x="336" y="179" on="1"/>
        <pt x="268" y="179" on="1"/>
        <pt x="268" y="51" on="1"/>
        <pt x="337" y="112" on="1"/>
      </contour>
      <contour>
        <pt x="221" y="131" on="1"/>
        <pt x="198" y="131" on="1"/>
        <pt x="198" y="227" on="1"/>
        <pt x="221" y="250" on="1"/>
      </contour>
      <contour>
        <pt x="183" y="243" on="1"/>
        <pt x="140" y="131" on="1"/>
        <pt x="107" y="131" on="1"/>
        <pt x="65" y="243" on="1"/>
        <pt x="91" y="243" on="1"/>
        <pt x="121" y="150" on="1"/>
        <pt x="127" y="150" on="1"/>
        <pt x="158" y="243" on="1"/>
      </contour>
      <contour>
        <pt x="586" y="150" on="1"/>
        <pt x="586" y="224" on="1"/>
        <pt x="519" y="224" on="1"/>
        <pt x="519" y="150" on="1"/>
      </contour>
      <contour>
        <pt x="586" y="67" on="1"/>
        <pt x="567" y="48" on="1"/>
        <pt x="524" y="48" on="1"/>
        <pt x="524" y="19" on="1"/>
        <pt x="586" y="19" on="1"/>
      </contour>
    </TTGlyph>
    <TTGlyph name="dieresis" xMin="20" yMin="420" xMax="220" yMax="500">
      <contour>
        <pt x="220" y="420" on="1"/>
        <pt x="155" y="420" on="1"/>
        <pt x="155" y="500" on="1"/>
        <pt x="220" y="500" on="1"/>
      </contour>
      <contour>
        <pt x="85" y="420" on="1"/>
        <pt x="20" y="420" on="1"/>
        <pt x="20" y="500" on="1"/>
        <pt x="85" y="500" on="1"/>
      </contour>
    </TTGlyph>
    <TTGlyph name="divide" xMin="85" yMin="0" xMax="435" yMax="350">
      <component glyphName="period" x="135" y="0" flags="0x4"/>
      <component glyphName="period" x="135" y="270" flags="0x4"/>
      <component glyphName="emdash" x="0" y="0" flags="0x4"/>
    </TTGlyph>
    <TTGlyph name="dollar" xMin="70" yMin="-60" xMax="450" yMax="550">
      <contour>
        <pt x="450" y="490" on="1"/>
        <pt x="380" y="420" on="1"/>
        <pt x="290" y="420" on="1"/>
        <pt x="290" y="280" on="1"/>
        <pt x="370" y="280" on="1"/>
        <pt x="399" y="280" on="0"/>
        <pt x="440" y="239" on="0"/>
        <pt x="440" y="210" on="1"/>
        <pt x="440" y="70" on="1"/>
        <pt x="440" y="41" on="0"/>
        <pt x="399" y="0" on="0"/>
        <pt x="370" y="0" on="1"/>
        <pt x="290" y="0" on="1"/>
        <pt x="230" y="-60" on="1"/>
        <pt x="230" y="0" on="1"/>
        <pt x="70" y="0" on="1"/>
        <pt x="140" y="70" on="1"/>
        <pt x="230" y="70" on="1"/>
        <pt x="230" y="210" on="1"/>
        <pt x="150" y="210" on="1"/>
        <pt x="121" y="210" on="0"/>
        <pt x="80" y="251" on="0"/>
        <pt x="80" y="280" on="1"/>
        <pt x="80" y="420" on="1"/>
        <pt x="80" y="449" on="0"/>
        <pt x="121" y="490" on="0"/>
        <pt x="150" y="490" on="1"/>
        <pt x="230" y="490" on="1"/>
        <pt x="290" y="550" on="1"/>
        <pt x="290" y="490" on="1"/>
      </contour>
      <contour>
        <pt x="230" y="280" on="1"/>
        <pt x="230" y="420" on="1"/>
        <pt x="150" y="420" on="1"/>
        <pt x="150" y="280" on="1"/>
      </contour>
      <contour>
        <pt x="370" y="70" on="1"/>
        <pt x="370" y="210" on="1"/>
        <pt x="290" y="210" on="1"/>
        <pt x="290" y="70" on="1"/>
      </contour>
    </TTGlyph>
    <TTGlyph name="dotlessi" xMin="70" yMin="0" xMax="140" yMax="370">
      <contour>
        <pt x="140" y="0" on="1"/>
        <pt x="70" y="0" on="1"/>
        <pt x="70" y="300" on="1"/>
        <pt x="140" y="370" on="1"/>
      </contour>
    </TTGlyph>
    <TTGlyph name="e" xMin="70" yMin="0" xMax="420" yMax="350">
      <contour>
        <pt x="420" y="0" on="1"/>
        <pt x="140" y="0" on="1"/>
        <pt x="111" y="0" on="0"/>
        <pt x="70" y="41" on="0"/>
        <pt x="70" y="70" on="1"/>
        <pt x="70" y="280" on="1"/>
        <pt x="70" y="309" on="0"/>
        <pt x="111" y="350" on="0"/>
        <pt x="140" y="350" on="1"/>
        <pt x="350" y="350" on="1"/>
        <pt x="379" y="350" on="0"/>
        <pt x="420" y="309" on="0"/>
        <pt x="420" y="280" on="1"/>
        <pt x="420" y="210" on="1"/>
        <pt x="350" y="140" on="1"/>
        <pt x="150" y="140" on="1"/>
        <pt x="210" y="200" on="1"/>
        <pt x="350" y="200" on="1"/>
        <pt x="350" y="290" on="1"/>
        <pt x="140" y="290" on="1"/>
        <pt x="140" y="60" on="1"/>
        <pt x="420" y="60" on="1"/>
      </contour>
    </TTGlyph>
    <TTGlyph name="eacute" xMin="70" yMin="0" xMax="420" yMax="560">
      <component glyphName="e" x="0" y="0" flags="0x204"/>
      <component glyphName="acute" x="210" y="0" flags="0x4"/>
    </TTGlyph>
    <TTGlyph name="ecircumflex" xMin="70" yMin="0" xMax="420" yMax="550">
      <component glyphName="e" x="0" y="0" flags="0x204"/>
      <component glyphName="circumflex" x="140" y="0" flags="0x4"/>
    </TTGlyph>
    <TTGlyph name="edieresis" xMin="70" yMin="0" xMax="420" yMax="500">
      <component glyphName="e" x="0" y="0" flags="0x204"/>
      <component glyphName="dieresis" x="125" y="0" flags="0x4"/>
    </TTGlyph>
    <TTGlyph name="egrave" xMin="70" yMin="0" xMax="420" yMax="560">
      <component glyphName="e" x="0" y="0" flags="0x204"/>
      <component glyphName="grave" x="150" y="0" flags="0x4"/>
    </TTGlyph>
    <TTGlyph name="eight" xMin="75" yMin="0" xMax="445" yMax="490">
      <contour>
        <pt x="445" y="70" on="1"/>
        <pt x="445" y="41" on="0"/>
        <pt x="404" y="0" on="0"/>
        <pt x="375" y="0" on="1"/>
        <pt x="145" y="0" on="1"/>
        <pt x="116" y="0" on="0"/>
        <pt x="75" y="41" on="0"/>
        <pt x="75" y="70" on="1"/>
        <pt x="75" y="220" on="1"/>
        <pt x="75" y="245" on="0"/>
        <pt x="108" y="279" on="0"/>
        <pt x="135" y="279" on="1"/>
        <pt x="135" y="420" on="1"/>
        <pt x="135" y="449" on="0"/>
        <pt x="167" y="490" on="0"/>
        <pt x="195" y="490" on="1"/>
        <pt x="325" y="490" on="1"/>
        <pt x="353" y="490" on="0"/>
        <pt x="385" y="449" on="0"/>
        <pt x="385" y="420" on="1"/>
        <pt x="385" y="279" on="1"/>
        <pt x="412" y="279" on="0"/>
        <pt x="445" y="246" on="0"/>
        <pt x="445" y="220" on="1"/>
      </contour>
      <contour>
        <pt x="320" y="280" on="1"/>
        <pt x="320" y="420" on="1"/>
        <pt x="200" y="420" on="1"/>
        <pt x="200" y="280" on="1"/>
      </contour>
      <contour>
        <pt x="365" y="70" on="1"/>
        <pt x="365" y="220" on="1"/>
        <pt x="155" y="220" on="1"/>
        <pt x="155" y="70" on="1"/>
      </contour>
    </TTGlyph>
    <TTGlyph name="emdash" xMin="85" yMin="140" xMax="435" yMax="210">
      <contour>
        <pt x="435" y="140" on="1"/>
        <pt x="85" y="140" on="1"/>
        <pt x="85" y="210" on="1"/>
        <pt x="435" y="210" on="1"/>
      </contour>
    </TTGlyph>
    <TTGlyph name="endash" xMin="90" yMin="140" xMax="370" yMax="210">
      <contour>
        <pt x="370" y="140" on="1"/>
        <pt x="90" y="140" on="1"/>
        <pt x="90" y="210" on="1"/>
        <pt x="370" y="210" on="1"/>
      </contour>
    </TTGlyph>
    <TTGlyph name="equal" xMin="85" yMin="70" xMax="435" yMax="280">
      <contour>
        <pt x="435" y="210" on="1"/>
        <pt x="85" y="210" on="1"/>
        <pt x="85" y="280" on="1"/>
        <pt x="435" y="280" on="1"/>
      </contour>
      <contour>
        <pt x="435" y="70" on="1"/>
        <pt x="85" y="70" on="1"/>
        <pt x="85" y="140" on="1"/>
        <pt x="435" y="140" on="1"/>
      </contour>
    </TTGlyph>
    <TTGlyph name="eth" xMin="65" yMin="0" xMax="415" yMax="580">
      <contour>
        <pt x="415" y="70" on="1"/>
        <pt x="415" y="41" on="0"/>
        <pt x="374" y="0" on="0"/>
        <pt x="345" y="0" on="1"/>
        <pt x="135" y="0" on="1"/>
        <pt x="106" y="0" on="0"/>
        <pt x="65" y="41" on="0"/>
        <pt x="65" y="70" on="1"/>
        <pt x="65" y="200" on="1"/>
        <pt x="65" y="229" on="0"/>
        <pt x="106" y="270" on="0"/>
        <pt x="135" y="270" on="1"/>
        <pt x="345" y="270" on="1"/>
        <pt x="345" y="303" on="1"/>
        <pt x="237" y="404" on="1"/>
        <pt x="135" y="311" on="1"/>
        <pt x="135" y="389" on="1"/>
        <pt x="195" y="443" on="1"/>
        <pt x="135" y="500" on="1"/>
        <pt x="135" y="580" on="1"/>
        <pt x="239" y="483" on="1"/>
        <pt x="347" y="580" on="1"/>
        <pt x="347" y="505" on="1"/>
        <pt x="280" y="444" on="1"/>
        <pt x="390" y="342" on="1"/>
        <pt x="415" y="320" on="0"/>
        <pt x="415" y="290" on="1"/>
      </contour>
      <contour>
        <pt x="345" y="260" on="1"/>
        <pt x="294" y="210" on="1"/>
        <pt x="135" y="210" on="1"/>
        <pt x="135" y="60" on="1"/>
        <pt x="345" y="60" on="1"/>
      </contour>
    </TTGlyph>
    <TTGlyph name="exclam" xMin="90" yMin="0" xMax="180" yMax="490">
      <contour>
        <pt x="180" y="218" on="1"/>
        <pt x="100" y="140" on="1"/>
        <pt x="100" y="490" on="1"/>
        <pt x="180" y="490" on="1"/>
      </contour>
      <contour>
        <pt x="180" y="0" on="1"/>
        <pt x="90" y="0" on="1"/>
        <pt x="90" y="80" on="1"/>
        <pt x="180" y="80" on="1"/>
      </contour>
    </TTGlyph>
    <TTGlyph name="exclamdown" xMin="90" yMin="-140" xMax="180" yMax="350">
      <contour>
        <pt x="90" y="132" on="1"/>
        <pt x="170" y="210" on="1"/>
        <pt x="170" y="-140" on="1"/>
        <pt x="90" y="-140" on="1"/>
      </contour>
      <contour>
        <pt x="90" y="350" on="1"/>
        <pt x="180" y="350" on="1"/>
        <pt x="180" y="270" on="1"/>
        <pt x="90" y="270" on="1"/>
      </contour>
    </TTGlyph>
    <TTGlyph name="f" xMin="80" yMin="0" xMax="380" yMax="560">
      <contour>
        <pt x="380" y="560" on="1"/>
        <pt x="319" y="500" on="1"/>
        <pt x="150" y="500" on="1"/>
        <pt x="150" y="310" on="1"/>
        <pt x="191" y="350" on="1"/>
        <pt x="370" y="350" on="1"/>
        <pt x="309" y="290" on="1"/>
        <pt x="150" y="290" on="1"/>
        <pt x="150" y="0" on="1"/>
        <pt x="80" y="0" on="1"/>
        <pt x="80" y="490" on="1"/>
        <pt x="80" y="519" on="0"/>
        <pt x="121" y="560" on="0"/>
        <pt x="150" y="560" on="1"/>
      </contour>
    </TTGlyph>
    <TTGlyph name="five" xMin="85" yMin="0" xMax="435" yMax="490">
      <contour>
        <pt x="435" y="70" on="1"/>
        <pt x="435" y="41" on="0"/>
        <pt x="394" y="0" on="0"/>
        <pt x="365" y="0" on="1"/>
        <pt x="155" y="0" on="1"/>
        <pt x="126" y="0" on="0"/>
        <pt x="85" y="41" on="0"/>
        <pt x="85" y="70" on="1"/>
        <pt x="85" y="140" on="1"/>
        <pt x="165" y="140" on="1"/>
        <pt x="165" y="70" on="1"/>
        <pt x="355" y="70" on="1"/>
        <pt x="355" y="270" on="1"/>
        <pt x="85" y="270" on="1"/>
        <pt x="85" y="490" on="1"/>
        <pt x="435" y="490" on="1"/>
        <pt x="435" y="420" on="1"/>
        <pt x="155" y="420" on="1"/>
        <pt x="155" y="340" on="1"/>
        <pt x="365" y="340" on="1"/>
        <pt x="394" y="340" on="0"/>
        <pt x="435" y="299" on="0"/>
        <pt x="435" y="270" on="1"/>
      </contour>
    </TTGlyph>
    <TTGlyph name="foundryicon" xMin="36" yMin="-182" xMax="1444" yMax="432">
      <contour>
        <pt x="1366" y="-6" on="1"/>
        <pt x="1321" y="-6" on="0"/>
        <pt x="1299" y="31" on="1"/>
        <pt x="1295" y="17" on="0"/>
        <pt x="1274" y="-6" on="0"/>
        <pt x="1258" y="-6" on="1"/>
        <pt x="1241" y="-6" on="0"/>
        <pt x="1214" y="19" on="0"/>
        <pt x="1209" y="32" on="1"/>
        <pt x="1206" y="19" on="0"/>
        <pt x="1179" y="2" on="0"/>
        <pt x="1167" y="0" on="1"/>
        <pt x="1143" y="0" on="0"/>
        <pt x="1116" y="22" on="0"/>
        <pt x="1111" y="39" on="1"/>
        <pt x="1103" y="26" on="0"/>
        <pt x="1076" y="2" on="0"/>
        <pt x="1056" y="0" on="1"/>
        <pt x="1032" y="0" on="0"/>
        <pt x="998" y="20" on="0"/>
        <pt x="979" y="52" on="0"/>
        <pt x="971" y="94" on="0"/>
        <pt x="972" y="117" on="1"/>
        <pt x="973" y="151" on="0"/>
        <pt x="987" y="221" on="0"/>
        <pt x="998" y="241" on="1"/>
        <pt x="1038" y="244" on="0"/>
        <pt x="1089" y="208" on="0"/>
        <pt x="1089" y="162" on="1"/>
        <pt x="1089" y="146" on="0"/>
        <pt x="1082" y="114" on="0"/>
        <pt x="1069" y="87" on="0"/>
        <pt x="1050" y="66" on="0"/>
        <pt x="1037" y="62" on="1"/>
        <pt x="1040" y="49" on="0"/>
        <pt x="1049" y="26" on="0"/>
        <pt x="1058" y="20" on="1"/>
        <pt x="1075" y="28" on="0"/>
        <pt x="1097" y="64" on="0"/>
        <pt x="1103" y="79" on="1"/>
        <pt x="1103" y="112" on="1"/>
        <pt x="1105" y="146" on="0"/>
        <pt x="1122" y="206" on="0"/>
        <pt x="1144" y="229" on="1"/>
        <pt x="1155" y="229" on="0"/>
        <pt x="1178" y="224" on="0"/>
        <pt x="1188" y="221" on="1"/>
        <pt x="1188" y="223" on="0"/>
        <pt x="1191" y="236" on="0"/>
        <pt x="1195" y="251" on="0"/>
        <pt x="1199" y="263" on="0"/>
        <pt x="1201" y="265" on="1"/>
        <pt x="1212" y="267" on="0"/>
        <pt x="1249" y="253" on="0"/>
        <pt x="1256" y="245" on="1"/>
        <pt x="1253" y="221" on="0"/>
        <pt x="1248" y="161" on="0"/>
        <pt x="1247" y="100" on="0"/>
        <pt x="1252" y="41" on="0"/>
        <pt x="1259" y="18" on="1"/>
        <pt x="1263" y="17" on="0"/>
        <pt x="1273" y="25" on="0"/>
        <pt x="1281" y="37" on="0"/>
        <pt x="1288" y="49" on="0"/>
        <pt x="1290" y="53" on="1"/>
        <pt x="1288" y="61" on="1"/>
        <pt x="1279" y="104" on="0"/>
        <pt x="1276" y="202" on="0"/>
        <pt x="1286" y="298" on="0"/>
        <pt x="1310" y="386" on="0"/>
        <pt x="1328" y="419" on="1"/>
        <pt x="1355" y="414" on="0"/>
        <pt x="1391" y="397" on="0"/>
        <pt x="1412" y="369" on="0"/>
        <pt x="1421" y="328" on="0"/>
        <pt x="1421" y="300" on="1"/>
        <pt x="1421" y="273" on="0"/>
        <pt x="1412" y="217" on="0"/>
        <pt x="1394" y="167" on="0"/>
        <pt x="1367" y="130" on="0"/>
        <pt x="1350" y="122" on="1"/>
        <pt x="1350" y="56" on="0"/>
        <pt x="1376" y="18" on="1"/>
        <pt x="1397" y="34" on="0"/>
        <pt x="1428" y="93" on="0"/>
        <pt x="1437" y="140" on="1"/>
        <pt x="1437" y="144" on="0"/>
        <pt x="1439" y="148" on="0"/>
        <pt x="1441" y="140" on="1"/>
        <pt x="1444" y="123" on="0"/>
        <pt x="1442" y="73" on="0"/>
        <pt x="1427" y="27" on="0"/>
        <pt x="1394" y="-6" on="0"/>
      </contour>
      <contour>
        <pt x="772" y="235" on="1"/>
        <pt x="781" y="161" on="0"/>
        <pt x="776" y="12" on="0"/>
        <pt x="744" y="-107" on="0"/>
        <pt x="684" y="-182" on="0"/>
        <pt x="638" y="-182" on="1"/>
        <pt x="605" y="-182" on="0"/>
        <pt x="583" y="-147" on="0"/>
        <pt x="583" y="-113" on="1"/>
        <pt x="583" y="-98" on="0"/>
        <pt x="588" y="-70" on="0"/>
        <pt x="592" y="-58" on="1"/>
        <pt x="607" y="-58" on="0"/>
        <pt x="641" y="-68" on="0"/>
        <pt x="653" y="-81" on="1"/>
        <pt x="651" y="-98" on="0"/>
        <pt x="647" y="-142" on="0"/>
        <pt x="652" y="-160" on="1"/>
        <pt x="671" y="-147" on="0"/>
        <pt x="693" y="-114" on="0"/>
        <pt x="705" y="-71" on="0"/>
        <pt x="711" y="-20" on="0"/>
        <pt x="715" y="11" on="1"/>
        <pt x="713" y="7" on="0"/>
        <pt x="702" y="0" on="0"/>
        <pt x="696" y="0" on="1"/>
        <pt x="674" y="0" on="0"/>
        <pt x="643" y="25" on="0"/>
        <pt x="633" y="45" on="1"/>
        <pt x="626" y="26" on="0"/>
        <pt x="594" y="-10" on="0"/>
        <pt x="563" y="-10" on="1"/>
        <pt x="527" y="-10" on="0"/>
        <pt x="477" y="21" on="0"/>
        <pt x="445" y="72" on="0"/>
        <pt x="430" y="136" on="0"/>
        <pt x="429" y="169" on="1"/>
        <pt x="429" y="207" on="0"/>
        <pt x="438" y="282" on="0"/>
        <pt x="459" y="351" on="0"/>
        <pt x="494" y="410" on="0"/>
        <pt x="520" y="432" on="1"/>
        <pt x="534" y="429" on="0"/>
        <pt x="567" y="419" on="0"/>
        <pt x="596" y="398" on="0"/>
        <pt x="615" y="362" on="0"/>
        <pt x="615" y="333" on="1"/>
        <pt x="615" y="310" on="0"/>
        <pt x="592" y="273" on="0"/>
        <pt x="575" y="258" on="1"/>
        <pt x="570" y="252" on="0"/>
        <pt x="568" y="258" on="0"/>
        <pt x="569" y="260" on="1"/>
        <pt x="571" y="272" on="0"/>
        <pt x="569" y="302" on="0"/>
        <pt x="563" y="331" on="0"/>
        <pt x="555" y="354" on="0"/>
        <pt x="551" y="359" on="1"/>
        <pt x="541" y="349" on="0"/>
        <pt x="523" y="298" on="0"/>
        <pt x="512" y="231" on="0"/>
        <pt x="509" y="154" on="0"/>
        <pt x="518" y="84" on="0"/>
        <pt x="540" y="27" on="0"/>
        <pt x="560" y="13" on="1"/>
        <pt x="584" y="21" on="0"/>
        <pt x="614" y="64" on="0"/>
        <pt x="621" y="80" on="1"/>
        <pt x="615" y="101" on="0"/>
        <pt x="610" y="150" on="0"/>
        <pt x="610" y="175" on="1"/>
        <pt x="610" y="198" on="0"/>
        <pt x="617" y="230" on="0"/>
        <pt x="622" y="241" on="1"/>
        <pt x="631" y="239" on="0"/>
        <pt x="669" y="229" on="0"/>
        <pt x="681" y="218" on="1"/>
        <pt x="678" y="167" on="0"/>
        <pt x="681" y="73" on="0"/>
        <pt x="695" y="30" on="1"/>
        <pt x="702" y="32" on="0"/>
        <pt x="707" y="43" on="0"/>
        <pt x="708" y="47" on="1"/>
        <pt x="714" y="76" on="0"/>
        <pt x="715" y="138" on="0"/>
        <pt x="711" y="196" on="0"/>
        <pt x="703" y="247" on="0"/>
        <pt x="700" y="265" on="1"/>
        <pt x="716" y="267" on="0"/>
        <pt x="760" y="249" on="0"/>
      </contour>
      <contour>
        <pt x="782" y="247" on="1"/>
        <pt x="807" y="245" on="0"/>
        <pt x="822" y="242" on="1"/>
        <pt x="838" y="239" on="0"/>
        <pt x="849" y="227" on="1"/>
        <pt x="856" y="214" on="0"/>
        <pt x="866" y="179" on="0"/>
        <pt x="868" y="153" on="1"/>
        <pt x="890" y="193" on="0"/>
        <pt x="897" y="215" on="1"/>
        <pt x="897" y="224" on="0"/>
        <pt x="903" y="247" on="0"/>
        <pt x="907" y="255" on="1"/>
        <pt x="927" y="253" on="0"/>
        <pt x="959" y="241" on="0"/>
        <pt x="966" y="230" on="1"/>
        <pt x="962" y="207" on="0"/>
        <pt x="959" y="152" on="0"/>
        <pt x="963" y="129" on="1"/>
        <pt x="912" y="115" on="0"/>
        <pt x="904" y="167" on="1"/>
        <pt x="899" y="154" on="0"/>
        <pt x="879" y="127" on="0"/>
        <pt x="875" y="110" on="1"/>
        <pt x="875" y="94" on="0"/>
        <pt x="873" y="51" on="0"/>
        <pt x="868" y="37" on="1"/>
        <pt x="863" y="17" on="0"/>
        <pt x="837" y="-7" on="0"/>
        <pt x="816" y="-4" on="1"/>
        <pt x="814" y="24" on="0"/>
        <pt x="811" y="91" on="0"/>
        <pt x="804" y="159" on="0"/>
        <pt x="792" y="222" on="0"/>
      </contour>
      <contour>
        <pt x="1166" y="23" on="1"/>
        <pt x="1174" y="29" on="0"/>
        <pt x="1193" y="53" on="0"/>
        <pt x="1195" y="66" on="1"/>
        <pt x="1190" y="83" on="0"/>
        <pt x="1186" y="120" on="0"/>
        <pt x="1184" y="155" on="0"/>
        <pt x="1185" y="183" on="0"/>
        <pt x="1186" y="192" on="1"/>
        <pt x="1179" y="183" on="0"/>
        <pt x="1166" y="143" on="0"/>
        <pt x="1159" y="94" on="0"/>
        <pt x="1160" y="42" on="0"/>
      </contour>
      <contour>
        <pt x="1349" y="151" on="1"/>
        <pt x="1359" y="166" on="0"/>
        <pt x="1373" y="215" on="0"/>
        <pt x="1380" y="269" on="0"/>
        <pt x="1380" y="322" on="0"/>
        <pt x="1377" y="341" on="1"/>
        <pt x="1367" y="303" on="0"/>
        <pt x="1351" y="199" on="0"/>
      </contour>
      <contour>
        <pt x="1052" y="195" on="1"/>
        <pt x="1036" y="146" on="0"/>
        <pt x="1036" y="84" on="1"/>
        <pt x="1043" y="85" on="0"/>
        <pt x="1053" y="99" on="0"/>
        <pt x="1060" y="118" on="0"/>
        <pt x="1063" y="142" on="0"/>
        <pt x="1063" y="153" on="1"/>
        <pt x="1063" y="167" on="0"/>
        <pt x="1056" y="189" on="0"/>
      </contour>
      <contour>
        <pt x="237" y="69" on="1"/>
        <pt x="214" y="69" on="0"/>
        <pt x="177" y="86" on="0"/>
        <pt x="148" y="109" on="0"/>
        <pt x="126" y="135" on="0"/>
        <pt x="117" y="144" on="1"/>
        <pt x="112" y="149" on="0"/>
        <pt x="92" y="154" on="0"/>
        <pt x="68" y="159" on="0"/>
        <pt x="46" y="166" on="0"/>
        <pt x="39" y="172" on="1"/>
        <pt x="36" y="174" on="0"/>
        <pt x="38" y="179" on="0"/>
        <pt x="40" y="179" on="1"/>
        <pt x="41" y="179" on="0"/>
        <pt x="68" y="175" on="0"/>
        <pt x="103" y="172" on="0"/>
        <pt x="134" y="169" on="0"/>
        <pt x="139" y="169" on="1"/>
        <pt x="165" y="174" on="0"/>
        <pt x="214" y="183" on="0"/>
        <pt x="255" y="192" on="0"/>
        <pt x="282" y="200" on="0"/>
        <pt x="287" y="204" on="1"/>
        <pt x="292" y="220" on="0"/>
        <pt x="315" y="238" on="0"/>
        <pt x="328" y="238" on="1"/>
        <pt x="343" y="238" on="0"/>
        <pt x="360" y="221" on="0"/>
        <pt x="360" y="209" on="1"/>
        <pt x="350" y="193" on="0"/>
        <pt x="333" y="146" on="0"/>
        <pt x="309" y="101" on="0"/>
        <pt x="270" y="69" on="0"/>
      </contour>
      <contour>
        <pt x="235" y="72" on="1"/>
        <pt x="206" y="79" on="1"/>
        <pt x="202" y="76" on="1"/>
        <pt x="203" y="76" on="0"/>
        <pt x="202" y="68" on="0"/>
        <pt x="205" y="65" on="1"/>
        <pt x="201" y="62" on="0"/>
        <pt x="201" y="61" on="1"/>
        <pt x="201" y="59" on="0"/>
        <pt x="216" y="51" on="0"/>
        <pt x="224" y="44" on="1"/>
        <pt x="219" y="43" on="0"/>
        <pt x="210" y="43" on="0"/>
        <pt x="206" y="41" on="1"/>
        <pt x="206" y="39" on="0"/>
        <pt x="207" y="38" on="1"/>
        <pt x="220" y="42" on="0"/>
        <pt x="228" y="39" on="1"/>
        <pt x="233" y="38" on="0"/>
        <pt x="241" y="30" on="0"/>
        <pt x="244" y="25" on="1"/>
        <pt x="247" y="25" on="0"/>
        <pt x="247" y="26" on="1"/>
        <pt x="244" y="35" on="0"/>
        <pt x="238" y="39" on="1"/>
        <pt x="244" y="38" on="0"/>
        <pt x="249" y="35" on="0"/>
        <pt x="253" y="31" on="1"/>
        <pt x="255" y="33" on="0"/>
        <pt x="255" y="33" on="1"/>
        <pt x="250" y="40" on="0"/>
        <pt x="237" y="42" on="0"/>
        <pt x="233" y="43" on="1"/>
        <pt x="227" y="48" on="0"/>
        <pt x="213" y="57" on="0"/>
        <pt x="208" y="61" on="1"/>
        <pt x="208" y="61" on="0"/>
        <pt x="212" y="63" on="1"/>
        <pt x="216" y="62" on="0"/>
        <pt x="220" y="69" on="0"/>
        <pt x="221" y="71" on="1"/>
        <pt x="225" y="72" on="0"/>
        <pt x="226" y="70" on="0"/>
        <pt x="229" y="70" on="1"/>
        <pt x="241" y="70" on="0"/>
        <pt x="239" y="71" on="0"/>
        <pt x="245" y="69" on="1"/>
        <pt x="245" y="68" on="0"/>
        <pt x="249" y="63" on="0"/>
        <pt x="251" y="63" on="1"/>
        <pt x="248" y="61" on="0"/>
        <pt x="248" y="59" on="1"/>
        <pt x="248" y="57" on="0"/>
        <pt x="263" y="52" on="0"/>
        <pt x="273" y="47" on="1"/>
        <pt x="269" y="45" on="0"/>
        <pt x="264" y="44" on="0"/>
        <pt x="260" y="41" on="1"/>
        <pt x="261" y="40" on="0"/>
        <pt x="262" y="40" on="0"/>
        <pt x="263" y="39" on="1"/>
        <pt x="268" y="41" on="0"/>
        <pt x="273" y="43" on="0"/>
        <pt x="278" y="43" on="1"/>
        <pt x="288" y="44" on="0"/>
        <pt x="298" y="34" on="1"/>
        <pt x="299" y="34" on="1"/>
        <pt x="299" y="34" on="0"/>
        <pt x="300" y="36" on="1"/>
        <pt x="298" y="40" on="0"/>
        <pt x="292" y="43" on="0"/>
        <pt x="289" y="45" on="1"/>
        <pt x="295" y="45" on="0"/>
        <pt x="302" y="43" on="0"/>
        <pt x="307" y="41" on="1"/>
        <pt x="308" y="42" on="0"/>
        <pt x="308" y="42" on="1"/>
        <pt x="300" y="47" on="0"/>
        <pt x="288" y="49" on="0"/>
        <pt x="283" y="48" on="1"/>
        <pt x="269" y="55" on="0"/>
        <pt x="254" y="60" on="1"/>
        <pt x="258" y="63" on="1"/>
        <pt x="260" y="64" on="0"/>
        <pt x="263" y="69" on="1"/>
        <pt x="263" y="73" on="1"/>
      </contour>
      <contour>
        <pt x="333" y="229" on="1"/>
        <pt x="333" y="227" on="0"/>
        <pt x="355" y="236" on="0"/>
        <pt x="360" y="238" on="1"/>
        <pt x="361" y="237" on="0"/>
        <pt x="361" y="237" on="1"/>
        <pt x="361" y="236" on="1"/>
        <pt x="351" y="206" on="1"/>
      </contour>
      <contour>
        <pt x="340" y="223" on="1"/>
        <pt x="340" y="224" on="0"/>
        <pt x="365" y="223" on="0"/>
        <pt x="370" y="223" on="1"/>
        <pt x="370" y="222" on="0"/>
        <pt x="370" y="222" on="1"/>
        <pt x="351" y="198" on="1"/>
      </contour>
      <contour>
        <pt x="355" y="34" on="1"/>
        <pt x="355" y="37" on="0"/>
        <pt x="360" y="37" on="1"/>
        <pt x="365" y="37" on="0"/>
        <pt x="365" y="34" on="1"/>
        <pt x="365" y="30" on="0"/>
        <pt x="360" y="30" on="1"/>
        <pt x="355" y="30" on="0"/>
      </contour>
      <contour>
        <pt x="376" y="27" on="1"/>
        <pt x="376" y="30" on="0"/>
        <pt x="381" y="30" on="1"/>
        <pt x="386" y="30" on="0"/>
        <pt x="386" y="27" on="1"/>
        <pt x="386" y="23" on="0"/>
        <pt x="381" y="23" on="1"/>
        <pt x="376" y="23" on="0"/>
        <pt x="376" y="27" on="1"/>
        <pt x="376" y="30" on="0"/>
        <pt x="381" y="30" on="1"/>
        <pt x="386" y="30" on="0"/>
        <pt x="386" y="27" on="1"/>
        <pt x="386" y="23" on="0"/>
        <pt x="381" y="23" on="1"/>
        <pt x="376" y="23" on="0"/>
      </contour>
      <contour>
        <pt x="406" y="30" on="1"/>
        <pt x="406" y="32" on="0"/>
        <pt x="408" y="36" on="0"/>
        <pt x="410" y="36" on="1"/>
        <pt x="412" y="36" on="0"/>
        <pt x="414" y="32" on="0"/>
        <pt x="414" y="30" on="1"/>
        <pt x="414" y="26" on="0"/>
        <pt x="410" y="26" on="1"/>
        <pt x="406" y="26" on="0"/>
        <pt x="406" y="30" on="1"/>
        <pt x="406" y="32" on="0"/>
        <pt x="408" y="36" on="0"/>
        <pt x="410" y="36" on="1"/>
        <pt x="412" y="36" on="0"/>
        <pt x="414" y="32" on="0"/>
        <pt x="414" y="30" on="1"/>
        <pt x="414" y="26" on="0"/>
        <pt x="410" y="26" on="1"/>
        <pt x="406" y="26" on="0"/>
      </contour>
    </TTGlyph>
    <TTGlyph name="four" xMin="85" yMin="0" xMax="445" yMax="490">
      <contour>
        <pt x="445" y="490" on="1"/>
        <pt x="155" y="204" on="1"/>
        <pt x="155" y="140" on="1"/>
        <pt x="355" y="140" on="1"/>
        <pt x="355" y="310" on="1"/>
        <pt x="435" y="390" on="1"/>
        <pt x="435" y="0" on="1"/>
        <pt x="355" y="0" on="1"/>
        <pt x="355" y="70" on="1"/>
        <pt x="85" y="70" on="1"/>
        <pt x="85" y="206" on="1"/>
        <pt x="85" y="218" on="0"/>
        <pt x="86" y="232" on="0"/>
        <pt x="90" y="243" on="0"/>
        <pt x="98" y="252" on="0"/>
        <pt x="104" y="259" on="1"/>
        <pt x="333" y="490" on="1"/>
      </contour>
    </TTGlyph>
    <TTGlyph name="foursuperior" xMin="55" yMin="280" xMax="270" yMax="560">
      <contour>
        <pt x="270" y="559" on="1"/>
        <pt x="130" y="419" on="1"/>
        <pt x="130" y="410" on="1"/>
        <pt x="189" y="410" on="1"/>
        <pt x="258" y="478" on="1"/>
        <pt x="268" y="478" on="1"/>
        <pt x="268" y="280" on="1"/>
        <pt x="196" y="280" on="1"/>
        <pt x="196" y="350" on="1"/>
        <pt x="55" y="350" on="1"/>
        <pt x="55" y="434" on="1"/>
        <pt x="178" y="560" on="1"/>
      </contour>
    </TTGlyph>
    <TTGlyph name="fraction" xMin="0" yMin="0" xMax="320" yMax="560">
      <contour>
        <pt x="320" y="560" on="1"/>
        <pt x="74" y="0" on="1"/>
        <pt x="0" y="0" on="1"/>
        <pt x="249" y="560" on="1"/>
      </contour>
    </TTGlyph>
    <TTGlyph name="g" xMin="70" yMin="-210" xMax="460" yMax="350">
      <contour>
        <pt x="460" y="350" on="1"/>
        <pt x="400" y="290" on="1"/>
        <pt x="150" y="290" on="1"/>
        <pt x="150" y="60" on="1"/>
        <pt x="360" y="60" on="1"/>
        <pt x="360" y="260" on="1"/>
        <pt x="430" y="260" on="1"/>
        <pt x="430" y="-140" on="1"/>
        <pt x="430" y="-169" on="0"/>
        <pt x="389" y="-210" on="0"/>
        <pt x="360" y="-210" on="1"/>
        <pt x="70" y="-210" on="1"/>
        <pt x="130" y="-150" on="1"/>
        <pt x="360" y="-150" on="1"/>
        <pt x="360" y="51" on="1"/>
        <pt x="300" y="0" on="1"/>
        <pt x="150" y="0" on="1"/>
        <pt x="121" y="0" on="0"/>
        <pt x="80" y="41" on="0"/>
        <pt x="80" y="70" on="1"/>
        <pt x="80" y="280" on="1"/>
        <pt x="80" y="309" on="0"/>
        <pt x="121" y="350" on="0"/>
        <pt x="150" y="350" on="1"/>
      </contour>
    </TTGlyph>
    <TTGlyph name="germandbls" xMin="80" yMin="0" xMax="430" yMax="560">
      <contour>
        <pt x="430" y="70" on="1"/>
        <pt x="430" y="41" on="0"/>
        <pt x="389" y="0" on="0"/>
        <pt x="360" y="0" on="1"/>
        <pt x="170" y="0" on="1"/>
        <pt x="230" y="60" on="1"/>
        <pt x="360" y="60" on="1"/>
        <pt x="360" y="290" on="1"/>
        <pt x="230" y="290" on="1"/>
        <pt x="290" y="350" on="1"/>
        <pt x="290" y="500" on="1"/>
        <pt x="150" y="500" on="1"/>
        <pt x="150" y="0" on="1"/>
        <pt x="80" y="0" on="1"/>
        <pt x="80" y="490" on="1"/>
        <pt x="80" y="519" on="0"/>
        <pt x="121" y="560" on="0"/>
        <pt x="150" y="560" on="1"/>
        <pt x="290" y="560" on="1"/>
        <pt x="319" y="560" on="0"/>
        <pt x="360" y="519" on="0"/>
        <pt x="360" y="490" on="1"/>
        <pt x="360" y="400" on="1"/>
        <pt x="310" y="350" on="1"/>
        <pt x="360" y="350" on="1"/>
        <pt x="389" y="350" on="0"/>
        <pt x="430" y="309" on="0"/>
        <pt x="430" y="280" on="1"/>
      </contour>
    </TTGlyph>
    <TTGlyph name="grave" xMin="-20" yMin="420" xMax="150" yMax="560">
      <contour>
        <pt x="150" y="420" on="1"/>
        <pt x="80" y="420" on="1"/>
        <pt x="-20" y="560" on="1"/>
        <pt x="50" y="560" on="1"/>
      </contour>
    </TTGlyph>
    <TTGlyph name="greater" xMin="50" yMin="7" xMax="350" yMax="418">
      <contour>
        <pt x="250" y="208" on="1"/>
        <pt x="50" y="369" on="1"/>
        <pt x="99" y="418" on="1"/>
        <pt x="350" y="208" on="1"/>
        <pt x="99" y="7" on="1"/>
        <pt x="50" y="56" on="1"/>
      </contour>
    </TTGlyph>
    <TTGlyph name="guillemotleft" xMin="50" yMin="7" xMax="460" yMax="343">
      <contour>
        <pt x="460" y="57" on="1"/>
        <pt x="420" y="7" on="1"/>
        <pt x="250" y="175" on="1"/>
        <pt x="420" y="343" on="1"/>
        <pt x="460" y="294" on="1"/>
        <pt x="340" y="175" on="1"/>
      </contour>
      <contour>
        <pt x="260" y="57" on="1"/>
        <pt x="220" y="7" on="1"/>
        <pt x="50" y="175" on="1"/>
        <pt x="220" y="343" on="1"/>
        <pt x="260" y="294" on="1"/>
        <pt x="140" y="175" on="1"/>
      </contour>
    </TTGlyph>
    <TTGlyph name="guillemotright" xMin="50" yMin="7" xMax="460" yMax="343">
      <contour>
        <pt x="170" y="175" on="1"/>
        <pt x="50" y="294" on="1"/>
        <pt x="90" y="343" on="1"/>
        <pt x="260" y="175" on="1"/>
        <pt x="90" y="7" on="1"/>
        <pt x="50" y="57" on="1"/>
      </contour>
      <contour>
        <pt x="370" y="175" on="1"/>
        <pt x="250" y="294" on="1"/>
        <pt x="290" y="343" on="1"/>
        <pt x="460" y="175" on="1"/>
        <pt x="290" y="7" on="1"/>
        <pt x="250" y="57" on="1"/>
      </contour>
    </TTGlyph>
    <TTGlyph name="guilsinglleft" xMin="50" yMin="7" xMax="260" yMax="343">
      <contour>
        <pt x="260" y="57" on="1"/>
        <pt x="220" y="7" on="1"/>
        <pt x="50" y="175" on="1"/>
        <pt x="220" y="343" on="1"/>
        <pt x="260" y="294" on="1"/>
        <pt x="140" y="175" on="1"/>
      </contour>
    </TTGlyph>
    <TTGlyph name="guilsinglright" xMin="50" yMin="7" xMax="260" yMax="343">
      <contour>
        <pt x="170" y="175" on="1"/>
        <pt x="50" y="294" on="1"/>
        <pt x="90" y="343" on="1"/>
        <pt x="260" y="175" on="1"/>
        <pt x="90" y="7" on="1"/>
        <pt x="50" y="57" on="1"/>
      </contour>
    </TTGlyph>
    <TTGlyph name="h" xMin="80" yMin="0" xMax="430" yMax="580">
      <contour>
        <pt x="430" y="0" on="1"/>
        <pt x="360" y="0" on="1"/>
        <pt x="360" y="290" on="1"/>
        <pt x="150" y="290" on="1"/>
        <pt x="150" y="0" on="1"/>
        <pt x="80" y="0" on="1"/>
        <pt x="80" y="510" on="1"/>
        <pt x="150" y="580" on="1"/>
        <pt x="150" y="300" on="1"/>
        <pt x="200" y="350" on="1"/>
        <pt x="360" y="350" on="1"/>
        <pt x="389" y="350" on="0"/>
        <pt x="430" y="309" on="0"/>
        <pt x="430" y="280" on="1"/>
      </contour>
    </TTGlyph>
    <TTGlyph name="hyphen" xMin="20" yMin="140" xMax="260" yMax="210">
      <contour>
        <pt x="260" y="210" on="1"/>
        <pt x="190" y="140" on="1"/>
        <pt x="20" y="140" on="1"/>
        <pt x="90" y="210" on="1"/>
      </contour>
    </TTGlyph>
    <TTGlyph name="i" xMin="70" yMin="0" xMax="140" yMax="490">
      <contour>
        <pt x="140" y="410" on="1"/>
        <pt x="70" y="410" on="1"/>
        <pt x="70" y="490" on="1"/>
        <pt x="140" y="490" on="1"/>
      </contour>
      <contour>
        <pt x="140" y="0" on="1"/>
        <pt x="70" y="0" on="1"/>
        <pt x="70" y="300" on="1"/>
        <pt x="140" y="370" on="1"/>
      </contour>
    </TTGlyph>
    <TTGlyph name="iacute" xMin="50" yMin="0" xMax="220" yMax="560">
      <component glyphName="dotlessi" x="0" y="0" flags="0x204"/>
      <component glyphName="acute" x="60" y="0" flags="0x4"/>
    </TTGlyph>
    <TTGlyph name="icircumflex" xMin="-10" yMin="0" xMax="220" yMax="550">
      <component glyphName="dotlessi" x="0" y="0" flags="0x204"/>
      <component glyphName="circumflex" x="0" y="0" flags="0x4"/>
    </TTGlyph>
    <TTGlyph name="idieresis" xMin="16" yMin="0" xMax="216" yMax="500">
      <component glyphName="dotlessi" x="0" y="0" flags="0x204"/>
      <component glyphName="dieresis" x="-4" y="0" flags="0x4"/>
    </TTGlyph>
    <TTGlyph name="igrave" xMin="-24" yMin="0" xMax="146" yMax="560">
      <component glyphName="dotlessi" x="-15" y="0" flags="0x204"/>
      <component glyphName="grave" x="-4" y="0" flags="0x4"/>
    </TTGlyph>
    <TTGlyph name="j" xMin="-35" yMin="-210" xMax="145" yMax="490">
      <contour>
        <pt x="145" y="410" on="1"/>
        <pt x="75" y="410" on="1"/>
        <pt x="75" y="490" on="1"/>
        <pt x="145" y="490" on="1"/>
      </contour>
      <contour>
        <pt x="145" y="-140" on="1"/>
        <pt x="145" y="-169" on="0"/>
        <pt x="104" y="-210" on="0"/>
        <pt x="75" y="-210" on="1"/>
        <pt x="-35" y="-210" on="1"/>
        <pt x="26" y="-150" on="1"/>
        <pt x="75" y="-150" on="1"/>
        <pt x="75" y="300" on="1"/>
        <pt x="145" y="370" on="1"/>
      </contour>
    </TTGlyph>
    <TTGlyph name="k" xMin="80" yMin="0" xMax="450" yMax="580">
      <contour>
        <pt x="450" y="350" on="1"/>
        <pt x="291" y="211" on="1"/>
        <pt x="291" y="201" on="1"/>
        <pt x="360" y="201" on="1"/>
        <pt x="389" y="201" on="0"/>
        <pt x="430" y="160" on="0"/>
        <pt x="430" y="131" on="1"/>
        <pt x="430" y="0" on="1"/>
        <pt x="360" y="0" on="1"/>
        <pt x="360" y="150" on="1"/>
        <pt x="150" y="150" on="1"/>
        <pt x="150" y="0" on="1"/>
        <pt x="80" y="0" on="1"/>
        <pt x="80" y="510" on="1"/>
        <pt x="150" y="580" on="1"/>
        <pt x="150" y="159" on="1"/>
        <pt x="365" y="350" on="1"/>
      </contour>
    </TTGlyph>
    <TTGlyph name="l" xMin="80" yMin="0" xMax="150" yMax="580">
      <contour>
        <pt x="150" y="0" on="1"/>
        <pt x="80" y="0" on="1"/>
        <pt x="80" y="510" on="1"/>
        <pt x="150" y="580" on="1"/>
      </contour>
    </TTGlyph>
    <TTGlyph name="less" xMin="110" yMin="7" xMax="410" yMax="418">
      <contour>
        <pt x="410" y="56" on="1"/>
        <pt x="361" y="7" on="1"/>
        <pt x="110" y="208" on="1"/>
        <pt x="361" y="418" on="1"/>
        <pt x="410" y="369" on="1"/>
        <pt x="210" y="208" on="1"/>
      </contour>
    </TTGlyph>
    <TTGlyph name="logicalnot" xMin="85" yMin="70" xMax="430" yMax="280">
      <contour>
        <pt x="430" y="70" on="1"/>
        <pt x="360" y="70" on="1"/>
        <pt x="360" y="210" on="1"/>
        <pt x="85" y="210" on="1"/>
        <pt x="85" y="280" on="1"/>
        <pt x="430" y="280" on="1"/>
      </contour>
    </TTGlyph>
    <TTGlyph name="m" xMin="70" yMin="0" xMax="660" yMax="350">
      <contour>
        <pt x="660" y="0" on="1"/>
        <pt x="590" y="0" on="1"/>
        <pt x="590" y="290" on="1"/>
        <pt x="400" y="290" on="1"/>
        <pt x="400" y="0" on="1"/>
        <pt x="330" y="0" on="1"/>
        <pt x="330" y="290" on="1"/>
        <pt x="140" y="290" on="1"/>
        <pt x="140" y="0" on="1"/>
        <pt x="70" y="0" on="1"/>
        <pt x="70" y="350" on="1"/>
        <pt x="140" y="350" on="1"/>
        <pt x="140" y="300" on="1"/>
        <pt x="190" y="350" on="1"/>
        <pt x="330" y="350" on="1"/>
        <pt x="391" y="350" on="0"/>
        <pt x="399" y="299" on="1"/>
        <pt x="450" y="350" on="1"/>
        <pt x="590" y="350" on="1"/>
        <pt x="619" y="350" on="0"/>
        <pt x="660" y="309" on="0"/>
        <pt x="660" y="280" on="1"/>
      </contour>
    </TTGlyph>
    <TTGlyph name="macron" xMin="30" yMin="420" xMax="210" yMax="490">
      <contour>
        <pt x="210" y="420" on="1"/>
        <pt x="30" y="420" on="1"/>
        <pt x="30" y="490" on="1"/>
        <pt x="210" y="490" on="1"/>
      </contour>
    </TTGlyph>
    <TTGlyph name="minus" xMin="85" yMin="140" xMax="435" yMax="210">
      <component glyphName="emdash" x="0" y="0" flags="0x204"/>
    </TTGlyph>
    <TTGlyph name="mu" xMin="80" yMin="-210" xMax="430" yMax="350">
      <contour>
        <pt x="430" y="0" on="1"/>
        <pt x="360" y="0" on="1"/>
        <pt x="360" y="50" on="1"/>
        <pt x="310" y="0" on="1"/>
        <pt x="150" y="0" on="1"/>
        <pt x="150" y="-210" on="1"/>
        <pt x="80" y="-210" on="1"/>
        <pt x="80" y="350" on="1"/>
        <pt x="150" y="350" on="1"/>
        <pt x="150" y="60" on="1"/>
        <pt x="360" y="60" on="1"/>
        <pt x="360" y="350" on="1"/>
        <pt x="430" y="350" on="1"/>
      </contour>
    </TTGlyph>
    <TTGlyph name="multiply" xMin="110" yMin="27" xMax="410" yMax="323">
      <contour>
        <pt x="410" y="76" on="1"/>
        <pt x="361" y="27" on="1"/>
        <pt x="260" y="126" on="1"/>
        <pt x="159" y="27" on="1"/>
        <pt x="110" y="76" on="1"/>
        <pt x="210" y="175" on="1"/>
        <pt x="110" y="274" on="1"/>
        <pt x="159" y="323" on="1"/>
        <pt x="260" y="224" on="1"/>
        <pt x="361" y="323" on="1"/>
        <pt x="410" y="274" on="1"/>
        <pt x="310" y="175" on="1"/>
      </contour>
    </TTGlyph>
    <TTGlyph name="n" xMin="70" yMin="0" xMax="420" yMax="350">
      <contour>
        <pt x="420" y="0" on="1"/>
        <pt x="350" y="0" on="1"/>
        <pt x="350" y="290" on="1"/>
        <pt x="140" y="290" on="1"/>
        <pt x="140" y="0" on="1"/>
        <pt x="70" y="0" on="1"/>
        <pt x="70" y="350" on="1"/>
        <pt x="140" y="350" on="1"/>
        <pt x="140" y="300" on="1"/>
        <pt x="190" y="350" on="1"/>
        <pt x="350" y="350" on="1"/>
        <pt x="379" y="350" on="0"/>
        <pt x="420" y="309" on="0"/>
        <pt x="420" y="280" on="1"/>
      </contour>
    </TTGlyph>
    <TTGlyph name="nine" xMin="60" yMin="0" xMax="420" yMax="490">
      <contour>
        <pt x="60" y="420" on="1"/>
        <pt x="60" y="449" on="0"/>
        <pt x="101" y="490" on="0"/>
        <pt x="130" y="490" on="1"/>
        <pt x="350" y="490" on="1"/>
        <pt x="379" y="490" on="0"/>
        <pt x="420" y="449" on="0"/>
        <pt x="420" y="420" on="1"/>
        <pt x="420" y="70" on="1"/>
        <pt x="420" y="41" on="0"/>
        <pt x="379" y="0" on="0"/>
        <pt x="350" y="0" on="1"/>
        <pt x="70" y="0" on="1"/>
        <pt x="70" y="70" on="1"/>
        <pt x="340" y="70" on="1"/>
        <pt x="340" y="200" on="1"/>
        <pt x="130" y="200" on="1"/>
        <pt x="101" y="200" on="0"/>
        <pt x="60" y="241" on="0"/>
        <pt x="60" y="270" on="1"/>
      </contour>
      <contour>
        <pt x="140" y="420" on="1"/>
        <pt x="140" y="270" on="1"/>
        <pt x="340" y="270" on="1"/>
        <pt x="340" y="420" on="1"/>
      </contour>
    </TTGlyph>
    <TTGlyph name="ntilde" xMin="70" yMin="0" xMax="420" yMax="550">
      <component glyphName="n" x="0" y="0" flags="0x204"/>
      <component glyphName="tilde" x="110" y="0" flags="0x4"/>
    </TTGlyph>
    <TTGlyph name="numbersign" xMin="20" yMin="0" xMax="511" yMax="440">
      <contour>
        <pt x="511" y="350" on="1"/>
        <pt x="439" y="290" on="1"/>
        <pt x="409" y="290" on="1"/>
        <pt x="382" y="150" on="1"/>
        <pt x="472" y="150" on="1"/>
        <pt x="400" y="90" on="1"/>
        <pt x="370" y="90" on="1"/>
        <pt x="364" y="60" on="1"/>
        <pt x="293" y="0" on="1"/>
        <pt x="310" y="90" on="1"/>
        <pt x="170" y="90" on="1"/>
        <pt x="164" y="60" on="1"/>
        <pt x="93" y="0" on="1"/>
        <pt x="110" y="90" on="1"/>
        <pt x="20" y="90" on="1"/>
        <pt x="92" y="150" on="1"/>
        <pt x="122" y="150" on="1"/>
        <pt x="149" y="290" on="1"/>
        <pt x="59" y="290" on="1"/>
        <pt x="131" y="350" on="1"/>
        <pt x="161" y="350" on="1"/>
        <pt x="166" y="380" on="1"/>
        <pt x="238" y="440" on="1"/>
        <pt x="221" y="350" on="1"/>
        <pt x="361" y="350" on="1"/>
        <pt x="366" y="380" on="1"/>
        <pt x="438" y="440" on="1"/>
        <pt x="421" y="350" on="1"/>
      </contour>
      <contour>
        <pt x="349" y="290" on="1"/>
        <pt x="209" y="290" on="1"/>
        <pt x="182" y="150" on="1"/>
        <pt x="322" y="150" on="1"/>
      </contour>
    </TTGlyph>
    <TTGlyph name="o" xMin="70" yMin="0" xMax="420" yMax="350">
      <contour>
        <pt x="420" y="70" on="1"/>
        <pt x="420" y="41" on="0"/>
        <pt x="379" y="0" on="0"/>
        <pt x="350" y="0" on="1"/>
        <pt x="140" y="0" on="1"/>
        <pt x="111" y="0" on="0"/>
        <pt x="70" y="41" on="0"/>
        <pt x="70" y="70" on="1"/>
        <pt x="70" y="280" on="1"/>
        <pt x="70" y="309" on="0"/>
        <pt x="111" y="350" on="0"/>
        <pt x="140" y="350" on="1"/>
        <pt x="350" y="350" on="1"/>
        <pt x="379" y="350" on="0"/>
        <pt x="420" y="309" on="0"/>
        <pt x="420" y="280" on="1"/>
      </contour>
      <contour>
        <pt x="350" y="60" on="1"/>
        <pt x="350" y="290" on="1"/>
        <pt x="140" y="290" on="1"/>
        <pt x="140" y="60" on="1"/>
      </contour>
    </TTGlyph>
    <TTGlyph name="oacute" xMin="70" yMin="0" xMax="420" yMax="560">
      <component glyphName="o" x="0" y="0" flags="0x204"/>
      <component glyphName="acute" x="210" y="0" flags="0x4"/>
    </TTGlyph>
    <TTGlyph name="ocircumflex" xMin="70" yMin="0" xMax="420" yMax="550">
      <component glyphName="o" x="0" y="0" flags="0x204"/>
      <component glyphName="circumflex" x="140" y="0" flags="0x4"/>
    </TTGlyph>
    <TTGlyph name="odieresis" xMin="70" yMin="0" xMax="420" yMax="500">
      <component glyphName="o" x="0" y="0" flags="0x204"/>
      <component glyphName="dieresis" x="125" y="0" flags="0x4"/>
    </TTGlyph>
    <TTGlyph name="oe" xMin="70" yMin="0" xMax="650" yMax="350">
      <contour>
        <pt x="650" y="210" on="1"/>
        <pt x="580" y="140" on="1"/>
        <pt x="405" y="140" on="1"/>
        <pt x="465" y="199" on="1"/>
        <pt x="580" y="199" on="1"/>
        <pt x="580" y="290" on="1"/>
        <pt x="395" y="290" on="1"/>
        <pt x="395" y="60" on="1"/>
        <pt x="640" y="60" on="1"/>
        <pt x="640" y="0" on="1"/>
        <pt x="395" y="0" on="1"/>
        <pt x="360" y="35" on="1"/>
        <pt x="325" y="0" on="1"/>
        <pt x="140" y="0" on="1"/>
        <pt x="111" y="0" on="0"/>
        <pt x="70" y="41" on="0"/>
        <pt x="70" y="70" on="1"/>
        <pt x="70" y="280" on="1"/>
        <pt x="70" y="309" on="0"/>
        <pt x="111" y="350" on="0"/>
        <pt x="140" y="350" on="1"/>
        <pt x="325" y="350" on="1"/>
        <pt x="360" y="315" on="1"/>
        <pt x="395" y="350" on="1"/>
        <pt x="580" y="350" on="1"/>
        <pt x="609" y="350" on="0"/>
        <pt x="650" y="309" on="0"/>
        <pt x="650" y="280" on="1"/>
      </contour>
      <contour>
        <pt x="325" y="60" on="1"/>
        <pt x="325" y="290" on="1"/>
        <pt x="140" y="290" on="1"/>
        <pt x="140" y="60" on="1"/>
      </contour>
    </TTGlyph>
    <TTGlyph name="ograve" xMin="70" yMin="0" xMax="420" yMax="560">
      <component glyphName="o" x="0" y="0" flags="0x204"/>
      <component glyphName="grave" x="150" y="0" flags="0x4"/>
    </TTGlyph>
    <TTGlyph name="one" xMin="65" yMin="0" xMax="435" yMax="490">
      <contour>
        <pt x="435" y="0" on="1"/>
        <pt x="85" y="0" on="1"/>
        <pt x="85" y="70" on="1"/>
        <pt x="285" y="70" on="1"/>
        <pt x="285" y="405" on="1"/>
        <pt x="275" y="405" on="1"/>
        <pt x="115" y="245" on="1"/>
        <pt x="65" y="296" on="1"/>
        <pt x="259" y="490" on="1"/>
        <pt x="365" y="490" on="1"/>
        <pt x="365" y="70" on="1"/>
        <pt x="435" y="70" on="1"/>
      </contour>
    </TTGlyph>
    <TTGlyph name="onehalf" xMin="30" yMin="0" xMax="605" yMax="560">
      <contour>
        <pt x="605" y="0" on="1"/>
        <pt x="393" y="0" on="1"/>
        <pt x="393" y="85" on="1"/>
        <pt x="535" y="183" on="1"/>
        <pt x="535" y="220" on="1"/>
        <pt x="393" y="220" on="1"/>
        <pt x="393" y="280" on="1"/>
        <pt x="535" y="280" on="1"/>
        <pt x="564" y="280" on="0"/>
        <pt x="605" y="239" on="0"/>
        <pt x="605" y="210" on="1"/>
        <pt x="605" y="165" on="1"/>
        <pt x="468" y="70" on="1"/>
        <pt x="468" y="60" on="1"/>
        <pt x="605" y="60" on="1"/>
      </contour>
      <contour>
        <pt x="243" y="280" on="1"/>
        <pt x="171" y="280" on="1"/>
        <pt x="171" y="490" on="1"/>
        <pt x="161" y="490" on="1"/>
        <pt x="106" y="420" on="1"/>
        <pt x="30" y="420" on="1"/>
        <pt x="143" y="560" on="1"/>
        <pt x="243" y="560" on="1"/>
      </contour>
      <contour>
        <pt x="479" y="560" on="1"/>
        <pt x="233" y="0" on="1"/>
        <pt x="159" y="0" on="1"/>
        <pt x="408" y="560" on="1"/>
      </contour>
    </TTGlyph>
    <TTGlyph name="onequarter" xMin="30" yMin="0" xMax="590" yMax="560">
      <contour>
        <pt x="590" y="279" on="1"/>
        <pt x="450" y="139" on="1"/>
        <pt x="450" y="130" on="1"/>
        <pt x="509" y="130" on="1"/>
        <pt x="578" y="198" on="1"/>
        <pt x="588" y="198" on="1"/>
        <pt x="588" y="0" on="1"/>
        <pt x="516" y="0" on="1"/>
        <pt x="516" y="70" on="1"/>
        <pt x="375" y="70" on="1"/>
        <pt x="375" y="154" on="1"/>
        <pt x="498" y="280" on="1"/>
      </contour>
      <contour>
        <pt x="243" y="280" on="1"/>
        <pt x="171" y="280" on="1"/>
        <pt x="171" y="490" on="1"/>
        <pt x="161" y="490" on="1"/>
        <pt x="106" y="420" on="1"/>
        <pt x="30" y="420" on="1"/>
        <pt x="143" y="560" on="1"/>
        <pt x="243" y="560" on="1"/>
      </contour>
      <contour>
        <pt x="479" y="560" on="1"/>
        <pt x="233" y="0" on="1"/>
        <pt x="159" y="0" on="1"/>
        <pt x="408" y="560" on="1"/>
      </contour>
    </TTGlyph>
    <TTGlyph name="onesuperior" xMin="40" yMin="280" xMax="253" yMax="560">
      <contour>
        <pt x="253" y="280" on="1"/>
        <pt x="181" y="280" on="1"/>
        <pt x="181" y="490" on="1"/>
        <pt x="171" y="490" on="1"/>
        <pt x="116" y="420" on="1"/>
        <pt x="40" y="420" on="1"/>
        <pt x="153" y="560" on="1"/>
        <pt x="253" y="560" on="1"/>
      </contour>
    </TTGlyph>
    <TTGlyph name="ordfeminine" xMin="50" yMin="70" xMax="335" yMax="490">
      <contour>
        <pt x="335" y="210" on="1"/>
        <pt x="265" y="210" on="1"/>
        <pt x="265" y="261" on="1"/>
        <pt x="205" y="210" on="1"/>
        <pt x="130" y="210" on="1"/>
        <pt x="101" y="210" on="0"/>
        <pt x="60" y="251" on="0"/>
        <pt x="60" y="280" on="1"/>
        <pt x="60" y="309" on="0"/>
        <pt x="101" y="350" on="0"/>
        <pt x="130" y="350" on="1"/>
        <pt x="204" y="350" on="1"/>
        <pt x="145" y="291" on="1"/>
        <pt x="145" y="270" on="1"/>
        <pt x="265" y="270" on="1"/>
        <pt x="265" y="430" on="1"/>
        <pt x="50" y="430" on="1"/>
        <pt x="110" y="490" on="1"/>
        <pt x="265" y="490" on="1"/>
        <pt x="294" y="490" on="0"/>
        <pt x="335" y="449" on="0"/>
        <pt x="335" y="420" on="1"/>
      </contour>
      <contour>
        <pt x="335" y="70" on="1"/>
        <pt x="55" y="70" on="1"/>
        <pt x="55" y="130" on="1"/>
        <pt x="335" y="130" on="1"/>
      </contour>
    </TTGlyph>
    <TTGlyph name="ordmasculine" xMin="65" yMin="70" xMax="345" yMax="490">
      <contour>
        <pt x="345" y="280" on="1"/>
        <pt x="345" y="251" on="0"/>
        <pt x="304" y="210" on="0"/>
        <pt x="275" y="210" on="1"/>
        <pt x="135" y="210" on="1"/>
        <pt x="106" y="210" on="0"/>
        <pt x="65" y="251" on="0"/>
        <pt x="65" y="280" on="1"/>
        <pt x="65" y="420" on="1"/>
        <pt x="65" y="449" on="0"/>
        <pt x="106" y="490" on="0"/>
        <pt x="135" y="490" on="1"/>
        <pt x="275" y="490" on="1"/>
        <pt x="304" y="490" on="0"/>
        <pt x="345" y="449" on="0"/>
        <pt x="345" y="420" on="1"/>
      </contour>
      <contour>
        <pt x="345" y="70" on="1"/>
        <pt x="65" y="70" on="1"/>
        <pt x="65" y="130" on="1"/>
        <pt x="345" y="130" on="1"/>
      </contour>
      <contour>
        <pt x="275" y="270" on="1"/>
        <pt x="275" y="430" on="1"/>
        <pt x="135" y="430" on="1"/>
        <pt x="135" y="270" on="1"/>
      </contour>
    </TTGlyph>
    <TTGlyph name="oslash" xMin="65" yMin="-27" xMax="465" yMax="372">
      <contour>
        <pt x="465" y="325" on="1"/>
        <pt x="430" y="291" on="1"/>
        <pt x="441" y="280" on="1"/>
        <pt x="441" y="70" on="1"/>
        <pt x="441" y="41" on="0"/>
        <pt x="399" y="0" on="0"/>
        <pt x="371" y="0" on="1"/>
        <pt x="159" y="0" on="1"/>
        <pt x="148" y="11" on="1"/>
        <pt x="110" y="-27" on="1"/>
        <pt x="65" y="21" on="1"/>
        <pt x="101" y="58" on="1"/>
        <pt x="89" y="70" on="1"/>
        <pt x="89" y="280" on="1"/>
        <pt x="89" y="309" on="0"/>
        <pt x="130" y="350" on="0"/>
        <pt x="159" y="350" on="1"/>
        <pt x="371" y="350" on="1"/>
        <pt x="383" y="337" on="1"/>
        <pt x="418" y="372" on="1"/>
      </contour>
      <contour>
        <pt x="337" y="280" on="1"/>
        <pt x="337" y="290" on="1"/>
        <pt x="159" y="290" on="1"/>
        <pt x="159" y="114" on="1"/>
        <pt x="169" y="114" on="1"/>
      </contour>
      <contour>
        <pt x="371" y="60" on="1"/>
        <pt x="371" y="231" on="1"/>
        <pt x="361" y="231" on="1"/>
        <pt x="198" y="70" on="1"/>
        <pt x="198" y="60" on="1"/>
      </contour>
    </TTGlyph>
    <TTGlyph name="otilde" xMin="70" yMin="0" xMax="420" yMax="550">
      <component glyphName="o" x="0" y="0" flags="0x204"/>
      <component glyphName="tilde" x="105" y="0" flags="0x4"/>
    </TTGlyph>
    <TTGlyph name="p" xMin="70" yMin="-210" xMax="420" yMax="350">
      <contour>
        <pt x="420" y="70" on="1"/>
        <pt x="420" y="41" on="0"/>
        <pt x="379" y="0" on="0"/>
        <pt x="350" y="0" on="1"/>
        <pt x="140" y="0" on="1"/>
        <pt x="140" y="-210" on="1"/>
        <pt x="70" y="-210" on="1"/>
        <pt x="70" y="350" on="1"/>
        <pt x="140" y="350" on="1"/>
        <pt x="140" y="300" on="1"/>
        <pt x="190" y="350" on="1"/>
        <pt x="350" y="350" on="1"/>
        <pt x="379" y="350" on="0"/>
        <pt x="420" y="309" on="0"/>
        <pt x="420" y="280" on="1"/>
      </contour>
      <contour>
        <pt x="350" y="60" on="1"/>
        <pt x="350" y="290" on="1"/>
        <pt x="140" y="290" on="1"/>
        <pt x="140" y="10" on="1"/>
        <pt x="190" y="60" on="1"/>
      </contour>
    </TTGlyph>
    <TTGlyph name="paragraph" xMin="100" yMin="-150" xMax="490" yMax="490">
      <contour>
        <pt x="490" y="490" on="1"/>
        <pt x="430" y="430" on="1"/>
        <pt x="430" y="-90" on="1"/>
        <pt x="370" y="-150" on="1"/>
        <pt x="370" y="430" on="1"/>
        <pt x="280" y="430" on="1"/>
        <pt x="280" y="-90" on="1"/>
        <pt x="220" y="-150" on="1"/>
        <pt x="220" y="140" on="1"/>
        <pt x="170" y="140" on="1"/>
        <pt x="141" y="140" on="0"/>
        <pt x="100" y="181" on="0"/>
        <pt x="100" y="210" on="1"/>
        <pt x="100" y="420" on="1"/>
        <pt x="100" y="449" on="0"/>
        <pt x="141" y="490" on="0"/>
        <pt x="170" y="490" on="1"/>
      </contour>
    </TTGlyph>
    <TTGlyph name="parenleft" xMin="110" yMin="-70" xMax="250" yMax="560">
      <contour>
        <pt x="250" y="-70" on="1"/>
        <pt x="180" y="-70" on="1"/>
        <pt x="151" y="-70" on="0"/>
        <pt x="110" y="-29" on="0"/>
        <pt x="110" y="0" on="1"/>
        <pt x="110" y="490" on="1"/>
        <pt x="110" y="519" on="0"/>
        <pt x="151" y="560" on="0"/>
        <pt x="180" y="560" on="1"/>
        <pt x="250" y="560" on="1"/>
        <pt x="250" y="500" on="1"/>
        <pt x="180" y="500" on="1"/>
        <pt x="180" y="-10" on="1"/>
        <pt x="250" y="-10" on="1"/>
      </contour>
    </TTGlyph>
    <TTGlyph name="parenright" xMin="70" yMin="-70" xMax="210" yMax="560">
      <contour>
        <pt x="70" y="-10" on="1"/>
        <pt x="140" y="-10" on="1"/>
        <pt x="140" y="500" on="1"/>
        <pt x="70" y="500" on="1"/>
        <pt x="70" y="560" on="1"/>
        <pt x="140" y="560" on="1"/>
        <pt x="169" y="560" on="0"/>
        <pt x="210" y="519" on="0"/>
        <pt x="210" y="490" on="1"/>
        <pt x="210" y="0" on="1"/>
        <pt x="210" y="-29" on="0"/>
        <pt x="169" y="-70" on="0"/>
        <pt x="140" y="-70" on="1"/>
        <pt x="70" y="-70" on="1"/>
      </contour>
    </TTGlyph>
    <TTGlyph name="percent" xMin="60" yMin="0" xMax="620" yMax="560">
      <contour>
        <pt x="620" y="70" on="1"/>
        <pt x="620" y="41" on="0"/>
        <pt x="579" y="0" on="0"/>
        <pt x="550" y="0" on="1"/>
        <pt x="480" y="0" on="1"/>
        <pt x="451" y="0" on="0"/>
        <pt x="410" y="41" on="0"/>
        <pt x="410" y="70" on="1"/>
        <pt x="410" y="210" on="1"/>
        <pt x="410" y="239" on="0"/>
        <pt x="451" y="280" on="0"/>
        <pt x="480" y="280" on="1"/>
        <pt x="550" y="280" on="1"/>
        <pt x="579" y="280" on="0"/>
        <pt x="620" y="239" on="0"/>
        <pt x="620" y="210" on="1"/>
      </contour>
      <contour>
        <pt x="499" y="560" on="1"/>
        <pt x="253" y="0" on="1"/>
        <pt x="179" y="0" on="1"/>
        <pt x="428" y="560" on="1"/>
      </contour>
      <contour>
        <pt x="270" y="350" on="1"/>
        <pt x="270" y="321" on="0"/>
        <pt x="229" y="280" on="0"/>
        <pt x="200" y="280" on="1"/>
        <pt x="130" y="280" on="1"/>
        <pt x="101" y="280" on="0"/>
        <pt x="60" y="321" on="0"/>
        <pt x="60" y="350" on="1"/>
        <pt x="60" y="490" on="1"/>
        <pt x="60" y="519" on="0"/>
        <pt x="101" y="560" on="0"/>
        <pt x="130" y="560" on="1"/>
        <pt x="200" y="560" on="1"/>
        <pt x="229" y="560" on="0"/>
        <pt x="270" y="519" on="0"/>
        <pt x="270" y="490" on="1"/>
      </contour>
      <contour>
        <pt x="560" y="60" on="1"/>
        <pt x="560" y="220" on="1"/>
        <pt x="470" y="220" on="1"/>
        <pt x="470" y="60" on="1"/>
      </contour>
      <contour>
        <pt x="210" y="340" on="1"/>
        <pt x="210" y="500" on="1"/>
        <pt x="120" y="500" on="1"/>
        <pt x="120" y="340" on="1"/>
      </contour>
    </TTGlyph>
    <TTGlyph name="period" xMin="80" yMin="0" xMax="170" yMax="80">
      <contour>
        <pt x="170" y="0" on="1"/>
        <pt x="80" y="0" on="1"/>
        <pt x="80" y="80" on="1"/>
        <pt x="170" y="80" on="1"/>
      </contour>
    </TTGlyph>
    <TTGlyph name="periodcentered" xMin="80" yMin="200" xMax="170" yMax="280">
      <component glyphName="period" x="0" y="200" flags="0x204"/>
    </TTGlyph>
    <TTGlyph name="plus" xMin="85" yMin="0" xMax="435" yMax="350">
      <contour>
        <pt x="435" y="140" on="1"/>
        <pt x="295" y="140" on="1"/>
        <pt x="295" y="0" on="1"/>
        <pt x="225" y="0" on="1"/>
        <pt x="225" y="140" on="1"/>
        <pt x="85" y="140" on="1"/>
        <pt x="85" y="210" on="1"/>
        <pt x="225" y="210" on="1"/>
        <pt x="225" y="350" on="1"/>
        <pt x="295" y="350" on="1"/>
        <pt x="295" y="210" on="1"/>
        <pt x="435" y="210" on="1"/>
      </contour>
    </TTGlyph>
    <TTGlyph name="plusminus" xMin="85" yMin="1" xMax="435" yMax="420">
      <component glyphName="emdash" x="0" y="-139" flags="0x204"/>
      <component glyphName="plus" x="0" y="70" flags="0x4"/>
    </TTGlyph>
    <TTGlyph name="q" xMin="70" yMin="-220" xMax="420" yMax="350">
      <contour>
        <pt x="420" y="-150" on="1"/>
        <pt x="350" y="-220" on="1"/>
        <pt x="350" y="50" on="1"/>
        <pt x="300" y="0" on="1"/>
        <pt x="140" y="0" on="1"/>
        <pt x="111" y="0" on="0"/>
        <pt x="70" y="41" on="0"/>
        <pt x="70" y="70" on="1"/>
        <pt x="70" y="280" on="1"/>
        <pt x="70" y="309" on="0"/>
        <pt x="111" y="350" on="0"/>
        <pt x="140" y="350" on="1"/>
        <pt x="420" y="350" on="1"/>
      </contour>
      <contour>
        <pt x="350" y="60" on="1"/>
        <pt x="350" y="340" on="1"/>
        <pt x="300" y="290" on="1"/>
        <pt x="140" y="290" on="1"/>
        <pt x="140" y="60" on="1"/>
      </contour>
    </TTGlyph>
    <TTGlyph name="question" xMin="80" yMin="0" xMax="430" yMax="490">
      <contour>
        <pt x="430" y="280" on="1"/>
        <pt x="430" y="251" on="0"/>
        <pt x="389" y="210" on="0"/>
        <pt x="360" y="210" on="1"/>
        <pt x="290" y="210" on="1"/>
        <pt x="290" y="140" on="1"/>
        <pt x="210" y="140" on="1"/>
        <pt x="210" y="210" on="1"/>
        <pt x="210" y="239" on="0"/>
        <pt x="251" y="280" on="0"/>
        <pt x="280" y="280" on="1"/>
        <pt x="350" y="280" on="1"/>
        <pt x="350" y="420" on="1"/>
        <pt x="160" y="420" on="1"/>
        <pt x="160" y="350" on="1"/>
        <pt x="80" y="350" on="1"/>
        <pt x="80" y="420" on="1"/>
        <pt x="80" y="449" on="0"/>
        <pt x="121" y="490" on="0"/>
        <pt x="150" y="490" on="1"/>
        <pt x="360" y="490" on="1"/>
        <pt x="389" y="490" on="0"/>
        <pt x="430" y="449" on="0"/>
        <pt x="430" y="420" on="1"/>
      </contour>
      <contour>
        <pt x="300" y="0" on="1"/>
        <pt x="210" y="0" on="1"/>
        <pt x="210" y="80" on="1"/>
        <pt x="300" y="80" on="1"/>
      </contour>
    </TTGlyph>
    <TTGlyph name="questiondown" xMin="80" yMin="-140" xMax="430" yMax="350">
      <contour>
        <pt x="80" y="70" on="1"/>
        <pt x="80" y="99" on="0"/>
        <pt x="121" y="140" on="0"/>
        <pt x="150" y="140" on="1"/>
        <pt x="220" y="140" on="1"/>
        <pt x="220" y="210" on="1"/>
        <pt x="300" y="210" on="1"/>
        <pt x="300" y="140" on="1"/>
        <pt x="300" y="111" on="0"/>
        <pt x="259" y="70" on="0"/>
        <pt x="230" y="70" on="1"/>
        <pt x="160" y="70" on="1"/>
        <pt x="160" y="-70" on="1"/>
        <pt x="350" y="-70" on="1"/>
        <pt x="350" y="0" on="1"/>
        <pt x="430" y="0" on="1"/>
        <pt x="430" y="-70" on="1"/>
        <pt x="430" y="-99" on="0"/>
        <pt x="389" y="-140" on="0"/>
        <pt x="360" y="-140" on="1"/>
        <pt x="150" y="-140" on="1"/>
        <pt x="121" y="-140" on="0"/>
        <pt x="80" y="-99" on="0"/>
        <pt x="80" y="-70" on="1"/>
      </contour>
      <contour>
        <pt x="210" y="350" on="1"/>
        <pt x="300" y="350" on="1"/>
        <pt x="300" y="270" on="1"/>
        <pt x="210" y="270" on="1"/>
      </contour>
    </TTGlyph>
    <TTGlyph name="quotedbl" xMin="90" yMin="330" xMax="310" yMax="560">
      <component glyphName="quotesingle" x="0" y="0" flags="0x4"/>
      <component glyphName="quotesingle" x="150" y="0" flags="0x4"/>
    </TTGlyph>
    <TTGlyph name="quotedblbase" xMin="61" yMin="-150" xMax="320" yMax="80">
      <component glyphName="comma" x="-19" y="0" flags="0x4"/>
      <component glyphName="comma" x="140" y="0" flags="0x4"/>
    </TTGlyph>
    <TTGlyph name="quotedblleft" xMin="80" yMin="350" xMax="340" yMax="580">
      <contour>
        <pt x="80" y="510" on="1"/>
        <pt x="140" y="580" on="1"/>
        <pt x="140" y="430" on="1"/>
        <pt x="180" y="430" on="1"/>
        <pt x="180" y="350" on="1"/>
        <pt x="150" y="350" on="1"/>
        <pt x="121" y="350" on="0"/>
        <pt x="80" y="391" on="0"/>
        <pt x="80" y="420" on="1"/>
      </contour>
      <contour>
        <pt x="240" y="510" on="1"/>
        <pt x="300" y="580" on="1"/>
        <pt x="300" y="430" on="1"/>
        <pt x="340" y="430" on="1"/>
        <pt x="340" y="350" on="1"/>
        <pt x="310" y="350" on="1"/>
        <pt x="281" y="350" on="0"/>
        <pt x="240" y="391" on="0"/>
        <pt x="240" y="420" on="1"/>
      </contour>
    </TTGlyph>
    <TTGlyph name="quotedblright" xMin="61" yMin="340" xMax="320" yMax="570">
      <component glyphName="comma" x="-19" y="490" flags="0x4"/>
      <component glyphName="comma" x="140" y="490" flags="0x4"/>
    </TTGlyph>
    <TTGlyph name="quoteleft" xMin="80" yMin="350" xMax="180" yMax="580">
      <contour>
        <pt x="80" y="510" on="1"/>
        <pt x="140" y="580" on="1"/>
        <pt x="140" y="430" on="1"/>
        <pt x="180" y="430" on="1"/>
        <pt x="180" y="350" on="1"/>
        <pt x="150" y="350" on="1"/>
        <pt x="121" y="350" on="0"/>
        <pt x="80" y="391" on="0"/>
        <pt x="80" y="420" on="1"/>
      </contour>
    </TTGlyph>
    <TTGlyph name="quoteright" xMin="61" yMin="340" xMax="161" yMax="570">
      <component glyphName="comma" x="-19" y="490" flags="0x4"/>
    </TTGlyph>
    <TTGlyph name="quotesinglbase" xMin="61" yMin="-150" xMax="161" yMax="80">
      <component glyphName="comma" x="-19" y="0" flags="0x4"/>
    </TTGlyph>
    <TTGlyph name="quotesingle" xMin="90" yMin="330" xMax="160" yMax="560">
      <contour>
        <pt x="160" y="398" on="1"/>
        <pt x="90" y="330" on="1"/>
        <pt x="90" y="560" on="1"/>
        <pt x="160" y="560" on="1"/>
      </contour>
    </TTGlyph>
    <TTGlyph name="r" xMin="70" yMin="0" xMax="350" yMax="350">
      <contour>
        <pt x="350" y="210" on="1"/>
        <pt x="280" y="210" on="1"/>
        <pt x="280" y="290" on="1"/>
        <pt x="140" y="290" on="1"/>
        <pt x="140" y="0" on="1"/>
        <pt x="70" y="0" on="1"/>
        <pt x="70" y="350" on="1"/>
        <pt x="140" y="350" on="1"/>
        <pt x="140" y="300" on="1"/>
        <pt x="190" y="350" on="1"/>
        <pt x="280" y="350" on="1"/>
        <pt x="309" y="350" on="0"/>
        <pt x="350" y="309" on="0"/>
        <pt x="350" y="280" on="1"/>
      </contour>
    </TTGlyph>
    <TTGlyph name="registered" xMin="100" yMin="140" xMax="650" yMax="700">
      <contour>
        <pt x="650" y="210" on="1"/>
        <pt x="650" y="181" on="0"/>
        <pt x="609" y="140" on="0"/>
        <pt x="580" y="140" on="1"/>
        <pt x="180" y="140" on="1"/>
        <pt x="165" y="140" on="0"/>
        <pt x="136" y="151" on="0"/>
        <pt x="114" y="171" on="0"/>
        <pt x="100" y="196" on="0"/>
        <pt x="100" y="210" on="1"/>
        <pt x="100" y="630" on="1"/>
        <pt x="100" y="659" on="0"/>
        <pt x="141" y="700" on="0"/>
        <pt x="170" y="700" on="1"/>
        <pt x="580" y="700" on="1"/>
        <pt x="609" y="700" on="0"/>
        <pt x="650" y="659" on="0"/>
        <pt x="650" y="630" on="1"/>
      </contour>
      <contour>
        <pt x="590" y="200" on="1"/>
        <pt x="590" y="640" on="1"/>
        <pt x="160" y="640" on="1"/>
        <pt x="160" y="200" on="1"/>
      </contour>
      <contour>
        <pt x="522" y="280" on="1"/>
        <pt x="440" y="280" on="1"/>
        <pt x="310" y="410" on="1"/>
        <pt x="310" y="280" on="1"/>
        <pt x="240" y="280" on="1"/>
        <pt x="240" y="441" on="1"/>
        <pt x="300" y="500" on="1"/>
        <pt x="240" y="500" on="1"/>
        <pt x="240" y="560" on="1"/>
        <pt x="450" y="560" on="1"/>
        <pt x="478" y="560" on="0"/>
        <pt x="520" y="518" on="0"/>
        <pt x="520" y="490" on="1"/>
        <pt x="520" y="430" on="1"/>
        <pt x="520" y="396" on="0"/>
        <pt x="496" y="378" on="1"/>
        <pt x="476" y="364" on="0"/>
        <pt x="450" y="364" on="1"/>
        <pt x="442" y="364" on="1"/>
        <pt x="442" y="354" on="1"/>
      </contour>
      <contour>
        <pt x="450" y="410" on="1"/>
        <pt x="450" y="500" on="1"/>
        <pt x="310" y="500" on="1"/>
        <pt x="310" y="410" on="1"/>
      </contour>
    </TTGlyph>
    <TTGlyph name="ring" xMin="31" yMin="418" xMax="219" yMax="602">
      <contour>
        <pt x="219" y="505" on="1"/>
        <pt x="219" y="479" on="0"/>
        <pt x="200" y="460" on="1"/>
        <pt x="170" y="429" on="1"/>
        <pt x="159" y="418" on="0"/>
        <pt x="137" y="418" on="1"/>
        <pt x="113" y="418" on="1"/>
        <pt x="91" y="418" on="0"/>
        <pt x="80" y="429" on="1"/>
        <pt x="50" y="460" on="1"/>
        <pt x="31" y="479" on="0"/>
        <pt x="31" y="505" on="1"/>
        <pt x="31" y="531" on="0"/>
        <pt x="50" y="550" on="1"/>
        <pt x="80" y="581" on="1"/>
        <pt x="99" y="602" on="0"/>
        <pt x="125" y="602" on="1"/>
        <pt x="150" y="602" on="0"/>
        <pt x="170" y="581" on="1"/>
        <pt x="200" y="550" on="1"/>
        <pt x="219" y="531" on="0"/>
      </contour>
      <contour>
        <pt x="175" y="505" on="1"/>
        <pt x="125" y="555" on="1"/>
        <pt x="75" y="505" on="1"/>
        <pt x="125" y="455" on="1"/>
      </contour>
    </TTGlyph>
    <TTGlyph name="s" xMin="55" yMin="0" xMax="355" yMax="350">
      <contour>
        <pt x="355" y="350" on="1"/>
        <pt x="294" y="290" on="1"/>
        <pt x="125" y="290" on="1"/>
        <pt x="125" y="210" on="1"/>
        <pt x="265" y="210" on="1"/>
        <pt x="294" y="210" on="0"/>
        <pt x="335" y="169" on="0"/>
        <pt x="335" y="140" on="1"/>
        <pt x="335" y="70" on="1"/>
        <pt x="335" y="41" on="0"/>
        <pt x="294" y="0" on="0"/>
        <pt x="265" y="0" on="1"/>
        <pt x="55" y="0" on="1"/>
        <pt x="55" y="60" on="1"/>
        <pt x="265" y="60" on="1"/>
        <pt x="265" y="150" on="1"/>
        <pt x="125" y="150" on="1"/>
        <pt x="96" y="150" on="0"/>
        <pt x="55" y="191" on="0"/>
        <pt x="55" y="220" on="1"/>
        <pt x="55" y="280" on="1"/>
        <pt x="55" y="309" on="0"/>
        <pt x="96" y="350" on="0"/>
        <pt x="125" y="350" on="1"/>
      </contour>
    </TTGlyph>
    <TTGlyph name="section" xMin="90" yMin="-210" xMax="400" yMax="490">
      <contour>
        <pt x="400" y="490" on="1"/>
        <pt x="329" y="420" on="1"/>
        <pt x="185" y="420" on="1"/>
        <pt x="185" y="391" on="1"/>
        <pt x="360" y="218" on="1"/>
        <pt x="387" y="191" on="0"/>
        <pt x="387" y="166" on="1"/>
        <pt x="387" y="154" on="1"/>
        <pt x="386" y="150" on="0"/>
        <pt x="386" y="143" on="0"/>
        <pt x="386" y="141" on="1"/>
        <pt x="386" y="60" on="1"/>
        <pt x="312" y="-18" on="1"/>
        <pt x="359" y="-65" on="1"/>
        <pt x="380" y="-86" on="0"/>
        <pt x="380" y="-115" on="1"/>
        <pt x="380" y="-140" on="1"/>
        <pt x="380" y="-169" on="0"/>
        <pt x="340" y="-210" on="0"/>
        <pt x="310" y="-210" on="1"/>
        <pt x="90" y="-210" on="1"/>
        <pt x="161" y="-140" on="1"/>
        <pt x="305" y="-140" on="1"/>
        <pt x="305" y="-111" on="1"/>
        <pt x="130" y="62" on="1"/>
        <pt x="103" y="89" on="0"/>
        <pt x="103" y="114" on="1"/>
        <pt x="103" y="126" on="1"/>
        <pt x="104" y="130" on="0"/>
        <pt x="104" y="137" on="0"/>
        <pt x="104" y="139" on="1"/>
        <pt x="104" y="220" on="1"/>
        <pt x="178" y="298" on="1"/>
        <pt x="131" y="345" on="1"/>
        <pt x="110" y="366" on="0"/>
        <pt x="110" y="395" on="1"/>
        <pt x="110" y="420" on="1"/>
        <pt x="110" y="449" on="0"/>
        <pt x="150" y="490" on="0"/>
        <pt x="180" y="490" on="1"/>
      </contour>
      <contour>
        <pt x="311" y="-17" on="1"/>
        <pt x="311" y="165" on="1"/>
        <pt x="179" y="297" on="1"/>
        <pt x="179" y="115" on="1"/>
      </contour>
    </TTGlyph>
    <TTGlyph name="semicolon" xMin="61" yMin="-150" xMax="161" yMax="350">
      <component glyphName="comma" x="-19" y="0" flags="0x4"/>
      <component glyphName="period" x="-19" y="270" flags="0x4"/>
    </TTGlyph>
    <TTGlyph name="seven" xMin="85" yMin="0" xMax="435" yMax="490">
      <contour>
        <pt x="435" y="229" on="1"/>
        <pt x="205" y="0" on="1"/>
        <pt x="103" y="0" on="1"/>
        <pt x="355" y="253" on="1"/>
        <pt x="355" y="420" on="1"/>
        <pt x="165" y="420" on="1"/>
        <pt x="165" y="350" on="1"/>
        <pt x="85" y="350" on="1"/>
        <pt x="85" y="490" on="1"/>
        <pt x="435" y="490" on="1"/>
      </contour>
    </TTGlyph>
    <TTGlyph name="six" xMin="85" yMin="0" xMax="445" yMax="490">
      <contour>
        <pt x="445" y="70" on="1"/>
        <pt x="445" y="41" on="0"/>
        <pt x="404" y="0" on="0"/>
        <pt x="375" y="0" on="1"/>
        <pt x="155" y="0" on="1"/>
        <pt x="126" y="0" on="0"/>
        <pt x="85" y="41" on="0"/>
        <pt x="85" y="70" on="1"/>
        <pt x="85" y="420" on="1"/>
        <pt x="85" y="449" on="0"/>
        <pt x="126" y="490" on="0"/>
        <pt x="155" y="490" on="1"/>
        <pt x="435" y="490" on="1"/>
        <pt x="435" y="420" on="1"/>
        <pt x="165" y="420" on="1"/>
        <pt x="165" y="290" on="1"/>
        <pt x="375" y="290" on="1"/>
        <pt x="404" y="290" on="0"/>
        <pt x="445" y="249" on="0"/>
        <pt x="445" y="220" on="1"/>
      </contour>
      <contour>
        <pt x="365" y="70" on="1"/>
        <pt x="365" y="220" on="1"/>
        <pt x="165" y="220" on="1"/>
        <pt x="165" y="70" on="1"/>
      </contour>
    </TTGlyph>
    <TTGlyph name="slash" xMin="-20" yMin="-70" xMax="330" yMax="560">
      <contour>
        <pt x="330" y="560" on="1"/>
        <pt x="54" y="-70" on="1"/>
        <pt x="-20" y="-70" on="1"/>
        <pt x="259" y="560" on="1"/>
      </contour>
    </TTGlyph>
    <TTGlyph name="sterling" xMin="100" yMin="0" xMax="450" yMax="490">
      <contour>
        <pt x="450" y="70" on="1"/>
        <pt x="450" y="41" on="0"/>
        <pt x="409" y="0" on="0"/>
        <pt x="380" y="0" on="1"/>
        <pt x="100" y="0" on="1"/>
        <pt x="100" y="70" on="1"/>
        <pt x="170" y="70" on="1"/>
        <pt x="170" y="210" on="1"/>
        <pt x="100" y="210" on="1"/>
        <pt x="100" y="270" on="1"/>
        <pt x="154" y="270" on="1"/>
        <pt x="154" y="280" on="1"/>
        <pt x="125" y="308" on="1"/>
        <pt x="100" y="333" on="0"/>
        <pt x="100" y="360" on="1"/>
        <pt x="100" y="420" on="1"/>
        <pt x="100" y="449" on="0"/>
        <pt x="141" y="490" on="0"/>
        <pt x="170" y="490" on="1"/>
        <pt x="380" y="490" on="1"/>
        <pt x="409" y="490" on="0"/>
        <pt x="450" y="449" on="0"/>
        <pt x="450" y="420" on="1"/>
        <pt x="450" y="350" on="1"/>
        <pt x="370" y="350" on="1"/>
        <pt x="370" y="420" on="1"/>
        <pt x="180" y="420" on="1"/>
        <pt x="180" y="340" on="1"/>
        <pt x="250" y="270" on="1"/>
        <pt x="340" y="270" on="1"/>
        <pt x="279" y="210" on="1"/>
        <pt x="250" y="210" on="1"/>
        <pt x="250" y="70" on="1"/>
        <pt x="370" y="70" on="1"/>
        <pt x="370" y="140" on="1"/>
        <pt x="450" y="140" on="1"/>
      </contour>
    </TTGlyph>
    <TTGlyph name="t" xMin="-10" yMin="0" xMax="300" yMax="490">
      <contour>
        <pt x="300" y="0" on="1"/>
        <pt x="160" y="0" on="1"/>
        <pt x="131" y="0" on="0"/>
        <pt x="90" y="41" on="0"/>
        <pt x="90" y="70" on="1"/>
        <pt x="90" y="290" on="1"/>
        <pt x="-10" y="290" on="1"/>
        <pt x="50" y="350" on="1"/>
        <pt x="90" y="350" on="1"/>
        <pt x="90" y="420" on="1"/>
        <pt x="160" y="490" on="1"/>
        <pt x="160" y="350" on="1"/>
        <pt x="300" y="350" on="1"/>
        <pt x="300" y="290" on="1"/>
        <pt x="160" y="290" on="1"/>
        <pt x="160" y="60" on="1"/>
        <pt x="300" y="60" on="1"/>
      </contour>
    </TTGlyph>
    <TTGlyph name="thorn" xMin="80" yMin="-210" xMax="430" yMax="580">
      <contour>
        <pt x="430" y="70" on="1"/>
        <pt x="430" y="41" on="0"/>
        <pt x="389" y="0" on="0"/>
        <pt x="360" y="0" on="1"/>
        <pt x="150" y="0" on="1"/>
        <pt x="150" y="-210" on="1"/>
        <pt x="80" y="-210" on="1"/>
        <pt x="80" y="510" on="1"/>
        <pt x="150" y="580" on="1"/>
        <pt x="150" y="300" on="1"/>
        <pt x="200" y="350" on="1"/>
        <pt x="360" y="350" on="1"/>
        <pt x="389" y="350" on="0"/>
        <pt x="430" y="309" on="0"/>
        <pt x="430" y="280" on="1"/>
      </contour>
      <contour>
        <pt x="360" y="60" on="1"/>
        <pt x="360" y="290" on="1"/>
        <pt x="150" y="290" on="1"/>
        <pt x="150" y="10" on="1"/>
        <pt x="200" y="60" on="1"/>
      </contour>
    </TTGlyph>
    <TTGlyph name="three" xMin="85" yMin="0" xMax="435" yMax="490">
      <contour>
        <pt x="435" y="70" on="1"/>
        <pt x="435" y="41" on="0"/>
        <pt x="394" y="0" on="0"/>
        <pt x="365" y="0" on="1"/>
        <pt x="155" y="0" on="1"/>
        <pt x="126" y="0" on="0"/>
        <pt x="85" y="41" on="0"/>
        <pt x="85" y="70" on="1"/>
        <pt x="85" y="140" on="1"/>
        <pt x="165" y="140" on="1"/>
        <pt x="165" y="70" on="1"/>
        <pt x="355" y="70" on="1"/>
        <pt x="355" y="210" on="1"/>
        <pt x="225" y="210" on="1"/>
        <pt x="225" y="268" on="1"/>
        <pt x="365" y="410" on="1"/>
        <pt x="365" y="420" on="1"/>
        <pt x="85" y="420" on="1"/>
        <pt x="85" y="490" on="1"/>
        <pt x="435" y="490" on="1"/>
        <pt x="435" y="389" on="1"/>
        <pt x="326" y="280" on="1"/>
        <pt x="326" y="270" on="1"/>
        <pt x="326" y="271" on="0"/>
        <pt x="337" y="271" on="1"/>
        <pt x="342" y="271" on="0"/>
        <pt x="356" y="271" on="0"/>
        <pt x="365" y="270" on="1"/>
        <pt x="394" y="269" on="0"/>
        <pt x="435" y="228" on="0"/>
        <pt x="435" y="200" on="1"/>
      </contour>
    </TTGlyph>
    <TTGlyph name="threequarters" xMin="50" yMin="0" xMax="590" yMax="560">
      <contour>
        <pt x="590" y="279" on="1"/>
        <pt x="450" y="139" on="1"/>
        <pt x="450" y="130" on="1"/>
        <pt x="509" y="130" on="1"/>
        <pt x="578" y="198" on="1"/>
        <pt x="588" y="198" on="1"/>
        <pt x="588" y="0" on="1"/>
        <pt x="516" y="0" on="1"/>
        <pt x="516" y="70" on="1"/>
        <pt x="375" y="70" on="1"/>
        <pt x="375" y="154" on="1"/>
        <pt x="498" y="280" on="1"/>
      </contour>
      <contour>
        <pt x="262" y="350" on="1"/>
        <pt x="262" y="321" on="0"/>
        <pt x="221" y="280" on="0"/>
        <pt x="192" y="280" on="1"/>
        <pt x="50" y="280" on="1"/>
        <pt x="50" y="340" on="1"/>
        <pt x="175" y="340" on="1"/>
        <pt x="175" y="363" on="1"/>
        <pt x="116" y="422" on="1"/>
        <pt x="187" y="495" on="1"/>
        <pt x="187" y="500" on="1"/>
        <pt x="50" y="500" on="1"/>
        <pt x="50" y="560" on="1"/>
        <pt x="262" y="560" on="1"/>
        <pt x="262" y="494" on="1"/>
        <pt x="190" y="422" on="1"/>
        <pt x="262" y="420" on="0"/>
      </contour>
      <contour>
        <pt x="459" y="560" on="1"/>
        <pt x="213" y="0" on="1"/>
        <pt x="139" y="0" on="1"/>
        <pt x="388" y="560" on="1"/>
      </contour>
    </TTGlyph>
    <TTGlyph name="threesuperior" xMin="55" yMin="280" xMax="267" yMax="560">
      <contour>
        <pt x="267" y="350" on="1"/>
        <pt x="267" y="321" on="0"/>
        <pt x="226" y="280" on="0"/>
        <pt x="197" y="280" on="1"/>
        <pt x="55" y="280" on="1"/>
        <pt x="55" y="340" on="1"/>
        <pt x="180" y="340" on="1"/>
        <pt x="180" y="363" on="1"/>
        <pt x="121" y="422" on="1"/>
        <pt x="192" y="495" on="1"/>
        <pt x="192" y="500" on="1"/>
        <pt x="55" y="500" on="1"/>
        <pt x="55" y="560" on="1"/>
        <pt x="267" y="560" on="1"/>
        <pt x="267" y="494" on="1"/>
        <pt x="195" y="422" on="1"/>
        <pt x="267" y="420" on="0"/>
      </contour>
    </TTGlyph>
    <TTGlyph name="tilde" xMin="25" yMin="417" xMax="255" yMax="550">
      <contour>
        <pt x="255" y="547" on="1"/>
        <pt x="255" y="530" on="0"/>
        <pt x="249" y="469" on="1"/>
        <pt x="247" y="447" on="0"/>
        <pt x="217" y="417" on="0"/>
        <pt x="197" y="417" on="1"/>
        <pt x="163" y="417" on="0"/>
        <pt x="141" y="441" on="1"/>
        <pt x="84" y="504" on="1"/>
        <pt x="75" y="421" on="1"/>
        <pt x="25" y="421" on="1"/>
        <pt x="25" y="429" on="0"/>
        <pt x="28" y="468" on="0"/>
        <pt x="32" y="500" on="1"/>
        <pt x="34" y="521" on="0"/>
        <pt x="66" y="550" on="0"/>
        <pt x="87" y="550" on="1"/>
        <pt x="118" y="550" on="0"/>
        <pt x="139" y="528" on="1"/>
        <pt x="199" y="465" on="1"/>
        <pt x="205" y="547" on="1"/>
      </contour>
    </TTGlyph>
    <TTGlyph name="two" xMin="85" yMin="0" xMax="435" yMax="490">
      <contour>
        <pt x="435" y="0" on="1"/>
        <pt x="85" y="0" on="1"/>
        <pt x="85" y="105" on="1"/>
        <pt x="355" y="303" on="1"/>
        <pt x="355" y="420" on="1"/>
        <pt x="165" y="420" on="1"/>
        <pt x="165" y="350" on="1"/>
        <pt x="85" y="350" on="1"/>
        <pt x="85" y="420" on="1"/>
        <pt x="85" y="449" on="0"/>
        <pt x="126" y="490" on="0"/>
        <pt x="155" y="490" on="1"/>
        <pt x="365" y="490" on="1"/>
        <pt x="394" y="490" on="0"/>
        <pt x="435" y="449" on="0"/>
        <pt x="435" y="420" on="1"/>
        <pt x="435" y="275" on="1"/>
        <pt x="170" y="80" on="1"/>
        <pt x="170" y="70" on="1"/>
        <pt x="435" y="70" on="1"/>
      </contour>
    </TTGlyph>
    <TTGlyph name="twosuperior" xMin="55" yMin="280" xMax="267" yMax="560">
      <contour>
        <pt x="267" y="280" on="1"/>
        <pt x="55" y="280" on="1"/>
        <pt x="55" y="365" on="1"/>
        <pt x="197" y="463" on="1"/>
        <pt x="197" y="500" on="1"/>
        <pt x="55" y="500" on="1"/>
        <pt x="55" y="560" on="1"/>
        <pt x="197" y="560" on="1"/>
        <pt x="226" y="560" on="0"/>
        <pt x="267" y="519" on="0"/>
        <pt x="267" y="490" on="1"/>
        <pt x="267" y="445" on="1"/>
        <pt x="130" y="350" on="1"/>
        <pt x="130" y="340" on="1"/>
        <pt x="267" y="340" on="1"/>
      </contour>
    </TTGlyph>
    <TTGlyph name="u" xMin="70" yMin="0" xMax="420" yMax="350">
      <contour>
        <pt x="420" y="0" on="1"/>
        <pt x="350" y="0" on="1"/>
        <pt x="350" y="50" on="1"/>
        <pt x="300" y="0" on="1"/>
        <pt x="140" y="0" on="1"/>
        <pt x="111" y="0" on="0"/>
        <pt x="70" y="41" on="0"/>
        <pt x="70" y="70" on="1"/>
        <pt x="70" y="350" on="1"/>
        <pt x="140" y="350" on="1"/>
        <pt x="140" y="60" on="1"/>
        <pt x="350" y="60" on="1"/>
        <pt x="350" y="350" on="1"/>
        <pt x="420" y="350" on="1"/>
      </contour>
    </TTGlyph>
    <TTGlyph name="uacute" xMin="70" yMin="0" xMax="420" yMax="560">
      <component glyphName="u" x="0" y="0" flags="0x204"/>
      <component glyphName="acute" x="210" y="0" flags="0x4"/>
    </TTGlyph>
    <TTGlyph name="ucircumflex" xMin="70" yMin="0" xMax="420" yMax="550">
      <component glyphName="u" x="0" y="0" flags="0x204"/>
      <component glyphName="circumflex" x="140" y="0" flags="0x4"/>
    </TTGlyph>
    <TTGlyph name="udieresis" xMin="70" yMin="0" xMax="420" yMax="500">
      <component glyphName="u" x="0" y="0" flags="0x204"/>
      <component glyphName="dieresis" x="125" y="0" flags="0x4"/>
    </TTGlyph>
    <TTGlyph name="ugrave" xMin="70" yMin="0" xMax="420" yMax="560">
      <component glyphName="u" x="0" y="0" flags="0x204"/>
      <component glyphName="grave" x="150" y="0" flags="0x4"/>
    </TTGlyph>
    <TTGlyph name="underscore" xMin="-5" yMin="-140" xMax="465" yMax="-70">
      <contour>
        <pt x="465" y="-140" on="1"/>
        <pt x="-5" y="-140" on="1"/>
        <pt x="-5" y="-70" on="1"/>
        <pt x="465" y="-70" on="1"/>
      </contour>
    </TTGlyph>
    <TTGlyph name="uni00AD" xMin="20" yMin="140" xMax="260" yMax="210">
      <component glyphName="hyphen" x="0" y="0" flags="0x204"/>
    </TTGlyph>
    <TTGlyph name="v" xMin="25" yMin="0" xMax="395" yMax="350">
      <contour>
        <pt x="395" y="350" on="1"/>
        <pt x="259" y="0" on="1"/>
        <pt x="157" y="0" on="1"/>
        <pt x="25" y="350" on="1"/>
        <pt x="105" y="350" on="1"/>
        <pt x="200" y="58" on="1"/>
        <pt x="220" y="58" on="1"/>
        <pt x="315" y="350" on="1"/>
      </contour>
    </TTGlyph>
    <TTGlyph name="w" xMin="40" yMin="0" xMax="570" yMax="350">
      <contour>
        <pt x="570" y="350" on="1"/>
        <pt x="474" y="0" on="1"/>
        <pt x="364" y="0" on="1"/>
        <pt x="310" y="239" on="1"/>
        <pt x="300" y="239" on="1"/>
        <pt x="244" y="0" on="1"/>
        <pt x="134" y="0" on="1"/>
        <pt x="40" y="350" on="1"/>
        <pt x="115" y="350" on="1"/>
        <pt x="180" y="58" on="1"/>
        <pt x="200" y="58" on="1"/>
        <pt x="272" y="350" on="1"/>
        <pt x="342" y="350" on="1"/>
        <pt x="410" y="58" on="1"/>
        <pt x="430" y="58" on="1"/>
        <pt x="495" y="350" on="1"/>
      </contour>
    </TTGlyph>
    <TTGlyph name="x" xMin="10" yMin="0" xMax="380" yMax="350">
      <contour>
        <pt x="380" y="0" on="1"/>
        <pt x="294" y="0" on="1"/>
        <pt x="199" y="138" on="1"/>
        <pt x="189" y="138" on="1"/>
        <pt x="94" y="0" on="1"/>
        <pt x="10" y="0" on="1"/>
        <pt x="149" y="184" on="1"/>
        <pt x="20" y="350" on="1"/>
        <pt x="104" y="350" on="1"/>
        <pt x="191" y="226" on="1"/>
        <pt x="201" y="226" on="1"/>
        <pt x="284" y="350" on="1"/>
        <pt x="370" y="350" on="1"/>
        <pt x="239" y="184" on="1"/>
      </contour>
    </TTGlyph>
    <TTGlyph name="y" xMin="60" yMin="-210" xMax="420" yMax="350">
      <contour>
        <pt x="420" y="-140" on="1"/>
        <pt x="420" y="-169" on="0"/>
        <pt x="379" y="-210" on="0"/>
        <pt x="350" y="-210" on="1"/>
        <pt x="60" y="-210" on="1"/>
        <pt x="120" y="-150" on="1"/>
        <pt x="350" y="-150" on="1"/>
        <pt x="350" y="50" on="1"/>
        <pt x="300" y="0" on="1"/>
        <pt x="140" y="0" on="1"/>
        <pt x="111" y="0" on="0"/>
        <pt x="70" y="41" on="0"/>
        <pt x="70" y="70" on="1"/>
        <pt x="70" y="350" on="1"/>
        <pt x="140" y="350" on="1"/>
        <pt x="140" y="60" on="1"/>
        <pt x="350" y="60" on="1"/>
        <pt x="350" y="350" on="1"/>
        <pt x="420" y="350" on="1"/>
      </contour>
    </TTGlyph>
    <TTGlyph name="yacute" xMin="60" yMin="-210" xMax="420" yMax="560">
      <component glyphName="y" x="0" y="0" flags="0x204"/>
      <component glyphName="acute" x="210" y="0" flags="0x4"/>
    </TTGlyph>
    <TTGlyph name="ydieresis" xMin="60" yMin="-210" xMax="420" yMax="500">
      <component glyphName="y" x="0" y="0" flags="0x204"/>
      <component glyphName="dieresis" x="125" y="0" flags="0x4"/>
    </TTGlyph>
    <TTGlyph name="yen" xMin="70" yMin="0" xMax="480" yMax="490">
      <contour>
        <pt x="480" y="490" on="1"/>
        <pt x="360" y="270" on="1"/>
        <pt x="470" y="270" on="1"/>
        <pt x="410" y="210" on="1"/>
        <pt x="315" y="210" on="1"/>
        <pt x="315" y="130" on="1"/>
        <pt x="470" y="130" on="1"/>
        <pt x="410" y="70" on="1"/>
        <pt x="315" y="70" on="1"/>
        <pt x="315" y="0" on="1"/>
        <pt x="235" y="0" on="1"/>
        <pt x="235" y="70" on="1"/>
        <pt x="80" y="70" on="1"/>
        <pt x="140" y="130" on="1"/>
        <pt x="235" y="130" on="1"/>
        <pt x="235" y="210" on="1"/>
        <pt x="80" y="210" on="1"/>
        <pt x="140" y="270" on="1"/>
        <pt x="190" y="270" on="1"/>
        <pt x="70" y="490" on="1"/>
        <pt x="150" y="490" on="1"/>
        <pt x="270" y="260" on="1"/>
        <pt x="280" y="260" on="1"/>
        <pt x="400" y="490" on="1"/>
      </contour>
    </TTGlyph>
    <TTGlyph name="z" xMin="40" yMin="0" xMax="340" yMax="350">
      <contour>
        <pt x="340" y="0" on="1"/>
        <pt x="40" y="0" on="1"/>
        <pt x="40" y="70" on="1"/>
        <pt x="260" y="280" on="1"/>
        <pt x="260" y="290" on="1"/>
        <pt x="40" y="290" on="1"/>
        <pt x="40" y="350" on="1"/>
        <pt x="340" y="350" on="1"/>
        <pt x="340" y="280" on="1"/>
        <pt x="120" y="70" on="1"/>
        <pt x="120" y="60" on="1"/>
        <pt x="340" y="60" on="1"/>
      </contour>
    </TTGlyph>
    <TTGlyph name="zero" xMin="85" yMin="0" xMax="435" yMax="490">
      <contour>
        <pt x="435" y="70" on="1"/>
        <pt x="435" y="41" on="0"/>
        <pt x="394" y="0" on="0"/>
        <pt x="365" y="0" on="1"/>
        <pt x="155" y="0" on="1"/>
        <pt x="126" y="0" on="0"/>
        <pt x="85" y="41" on="0"/>
        <pt x="85" y="70" on="1"/>
        <pt x="85" y="420" on="1"/>
        <pt x="85" y="449" on="0"/>
        <pt x="126" y="490" on="0"/>
        <pt x="155" y="490" on="1"/>
        <pt x="365" y="490" on="1"/>
        <pt x="394" y="490" on="0"/>
        <pt x="435" y="449" on="0"/>
        <pt x="435" y="420" on="1"/>
      </contour>
      <contour>
        <pt x="355" y="70" on="1"/>
        <pt x="355" y="420" on="1"/>
        <pt x="165" y="420" on="1"/>
        <pt x="165" y="70" on="1"/>
      </contour>
    </TTGlyph>
</ttFont>
